<svg width="16" height="16" viewBox="0 0 16 16" fill="none" xmlns="http://www.w3.org/2000/svg">
<g clip-path="url(#clip0_451_1435)">
<path d="M7.98828 -0.00964699C8.02009 -0.00957964 8.0519 -0.00951229 8.08467 -0.00944291C8.5412 -0.0078907 8.98908 -5.01722e-05 9.4375 0.0938686C9.46796 0.100077 9.49843 0.106286 9.52981 0.112683C11.0417 0.428952 12.4164 1.11384 13.5312 2.18762C13.5622 2.21725 13.5622 2.21725 13.5937 2.24748C13.8902 2.53324 14.1633 2.82379 14.4062 3.15637C14.4331 3.19234 14.4599 3.22831 14.4867 3.26428C14.6754 3.52025 14.8428 3.78631 15 4.06262C15.0114 4.08236 15.0228 4.10211 15.0345 4.12245C15.7097 5.30208 16.0149 6.63854 16.0098 7.9884C16.0097 8.02021 16.0096 8.05202 16.0096 8.08479C16.008 8.54133 16.0002 8.9892 15.9062 9.43762C15.8969 9.48331 15.8969 9.48331 15.8874 9.52993C15.5712 11.0419 14.8863 12.4165 13.8125 13.5314C13.7927 13.552 13.773 13.5726 13.7526 13.5938C13.4669 13.8903 13.1763 14.1634 12.8437 14.4064C12.8078 14.4332 12.7718 14.46 12.7358 14.4868C12.4799 14.6755 12.2142 14.8437 11.9375 15.0001C11.9154 15.0127 11.8933 15.0253 11.8705 15.0382C11.1475 15.4452 10.3609 15.7186 9.54883 15.8849C9.52636 15.8895 9.50389 15.8941 9.48075 15.8988C9.02213 15.986 8.56823 16.011 8.10227 16.01C8.01041 16.0099 7.91858 16.0106 7.82672 16.0114C7.40881 16.0128 7.00581 15.9751 6.59375 15.9064C6.54045 15.8975 6.54045 15.8975 6.48607 15.8886C5.13397 15.6457 3.85116 15.0211 2.8125 14.1251C2.78921 14.1053 2.76593 14.0855 2.74194 14.0651C2.31991 13.696 1.92393 13.2975 1.59375 12.8439C1.56698 12.8079 1.54021 12.772 1.51342 12.7361C1.32467 12.4801 1.15644 12.2144 0.999997 11.9376C0.987428 11.9155 0.97486 11.8934 0.961911 11.8706C0.554866 11.1477 0.281465 10.3611 0.115231 9.54895C0.110626 9.52648 0.106021 9.50402 0.101277 9.48087C0.00834373 8.99192 -0.0116598 8.50838 -0.00976906 8.01184C-0.00970171 7.98003 -0.00963436 7.94822 -0.00956498 7.91544C-0.00801277 7.45891 -0.000172242 7.01103 0.0937466 6.56262C0.0999552 6.53215 0.106164 6.50169 0.112561 6.4703C0.42883 4.95837 1.11372 3.58373 2.1875 2.46887C2.20725 2.44826 2.227 2.42766 2.24736 2.40643C2.53312 2.10992 2.82366 1.8368 3.15625 1.59387C3.19222 1.56705 3.22819 1.54024 3.26416 1.51342C3.52008 1.32475 3.78579 1.15654 4.0625 1.00012C4.0846 0.98755 4.1067 0.974982 4.12947 0.962033C4.85245 0.554988 5.63905 0.281587 6.45117 0.115353C6.47363 0.110748 6.4961 0.106143 6.51925 0.101399C7.00819 0.0084658 7.49174 -0.0115377 7.98828 -0.00964699Z" fill="#FFD24E"/>
<path d="M7.88351 2.00339C7.99583 1.99621 8.04881 1.99678 8.1501 2.04236C8.233 2.13644 8.29862 2.2373 8.36775 2.34237C9.07621 3.41434 10.2455 4.26839 11.4777 4.55744C11.5809 4.57576 11.6766 4.58024 11.7812 4.58037C11.8193 4.58042 11.8573 4.58047 11.8965 4.58053C11.9359 4.58038 11.9752 4.58022 12.0157 4.58007C12.055 4.58022 12.0944 4.58037 12.1349 4.58053C12.1729 4.58048 12.211 4.58043 12.2502 4.58037C12.3019 4.58031 12.3019 4.58031 12.3547 4.58024C12.4548 4.57514 12.5462 4.55728 12.6441 4.53623C12.7845 4.52893 12.7845 4.52893 12.9107 4.53623C13.0186 4.64664 12.9983 4.71432 12.9988 4.86989C12.9897 6.23692 12.7915 7.6774 12.3664 8.97369C12.3479 9.03044 12.3297 9.0873 12.3117 9.14424C11.9791 10.1958 11.5097 11.2035 10.816 12.0568C10.7982 12.0792 10.7803 12.1016 10.7619 12.1247C10.1309 12.9137 9.36245 13.504 8.4405 13.8931C8.41336 13.9051 8.38623 13.9171 8.35827 13.9295C8.07529 14.0425 7.82371 14.011 7.54476 13.8966C7.48202 13.8678 7.41958 13.8381 7.35746 13.8079C7.32432 13.7921 7.29118 13.7763 7.25703 13.7601C5.47954 12.898 4.40105 11.1913 3.74179 9.3535C3.48331 8.61038 3.32671 7.85448 3.21376 7.07542C3.19997 6.98446 3.19997 6.98446 3.161 6.87424C3.15069 6.80689 3.14174 6.73931 3.13362 6.67164C3.12878 6.63126 3.12393 6.59087 3.11894 6.54926C3.11397 6.50621 3.10899 6.46317 3.10387 6.41881C3.09877 6.37471 3.09368 6.33061 3.08843 6.28517C3.0368 5.82738 3.00658 5.37219 3.00152 4.91129C3.00102 4.88273 3.00052 4.85418 3 4.82475C2.9999 4.7545 3.00395 4.68426 3.00866 4.61417C3.08483 4.53623 3.08483 4.53623 3.22527 4.52893C3.32344 4.52993 3.41445 4.54014 3.51179 4.55541C4.50533 4.69165 5.4445 4.35103 6.24586 3.7569C6.41732 3.62142 6.57921 3.47555 6.74097 3.32826C6.79007 3.28675 6.83924 3.24533 6.88854 3.20406C7.00569 3.10098 7.10527 2.98594 7.20512 2.86553C7.27633 2.78011 7.35007 2.69754 7.42411 2.61468C7.59234 2.42201 7.73844 2.21459 7.88351 2.00339Z" fill="#FF2525"/>
<path d="M9.66374 5.48319C10.3384 5.93538 10.8155 6.65106 10.9867 7.44648C11.0492 8.40364 10.9058 9.25676 10.263 10.0003C9.72998 10.565 9.02833 10.9723 8.2393 10.9991C7.26774 11.0166 6.53772 10.7784 5.81818 10.092C5.16881 9.41101 4.98888 8.61176 5.00052 7.70023C5.02459 6.93696 5.45676 6.25118 5.99904 5.73394C7.06624 4.82486 8.48235 4.78278 9.66374 5.48319Z" fill="#FF7B1B"/>
</g>
<defs>
<clipPath id="clip0_451_1435">
<rect width="16" height="16" fill="white"/>
</clipPath>
</defs>
</svg>
