<svg width="24" height="24" viewBox="0 0 24 24" fill="none" xmlns="http://www.w3.org/2000/svg">
<g clip-path="url(#clip0_451_1398)">
<circle cx="12" cy="12" r="12" fill="#F0F7FF"/>
<path d="M15.75 15.75C16.0625 15.75 16.3282 15.6407 16.5472 15.4222C16.7662 15.2037 16.8755 14.938 16.875 14.625C16.8745 14.312 16.7653 14.0465 16.5472 13.8285C16.3292 13.6105 16.0635 13.501 15.75 13.5C15.4365 13.499 15.171 13.6085 14.9535 13.8285C14.736 14.0485 14.6265 14.314 14.625 14.625C14.6235 14.936 14.733 15.2017 14.9535 15.4222C15.174 15.6427 15.4395 15.752 15.75 15.75ZM15.75 18C16.1375 18 16.4937 17.9092 16.8187 17.7277C17.1437 17.5462 17.4062 17.3057 17.6063 17.0062C17.3313 16.8437 17.0375 16.7187 16.725 16.6312C16.4125 16.5437 16.0875 16.5 15.75 16.5C15.4125 16.5 15.0875 16.5437 14.775 16.6312C14.4625 16.7187 14.1687 16.8437 13.8937 17.0062C14.0938 17.3062 14.3562 17.547 14.6812 17.7285C15.0062 17.91 15.3625 18.0005 15.75 18ZM15.75 19.5C14.7125 19.5 13.8283 19.1343 13.0972 18.4028C12.3663 17.6713 12.0005 16.787 12 15.75C11.9995 14.713 12.3653 13.8288 13.0972 13.0972C13.8293 12.3658 14.7135 12 15.75 12C16.7865 12 17.671 12.3658 18.4035 13.0972C19.136 13.8288 19.5015 14.713 19.5 15.75C19.4985 16.787 19.1328 17.6715 18.4028 18.4035C17.6728 19.1355 16.7885 19.501 15.75 19.5ZM12 19.5C10.2625 19.0625 8.828 18.0655 7.6965 16.509C6.565 14.9525 5.9995 13.2245 6 11.325V6.75L12 4.5L18 6.75V11.0063C17.675 10.8438 17.3093 10.7188 16.9028 10.6313C16.4963 10.5438 16.112 10.5 15.75 10.5C14.3 10.5 13.0625 11.0125 12.0375 12.0375C11.0125 13.0625 10.5 14.3 10.5 15.75C10.5 16.525 10.647 17.225 10.941 17.85C11.235 18.475 11.6068 19.0188 12.0562 19.4813C12.0437 19.4813 12.0345 19.4845 12.0285 19.491C12.0225 19.4975 12.013 19.5005 12 19.5Z" fill="#637593"/>
</g>
<defs>
<clipPath id="clip0_451_1398">
<rect width="24" height="24" fill="white"/>
</clipPath>
</defs>
</svg>
