<svg width="40" height="40" viewBox="0 0 40 40" fill="none" xmlns="http://www.w3.org/2000/svg">
<circle cx="20" cy="20" r="20" fill="#F0F7FF"/>
<g clip-path="url(#clip0_461_378)">
<path d="M12.5469 9.5C12.8198 9.53033 13.0397 9.55769 13.2973 9.62752C13.3277 9.63565 13.358 9.64379 13.3893 9.65217C13.4899 9.67922 13.5904 9.7067 13.6909 9.73419C13.7641 9.75395 13.8373 9.77369 13.9105 9.79339C14.0684 9.83597 14.2262 9.87873 14.3841 9.92165C14.6356 9.99006 14.8873 10.0581 15.1389 10.126C15.4077 10.1985 15.6766 10.2711 15.9453 10.3439C16.6544 10.5357 17.3639 10.7262 18.0735 10.9161C18.1257 10.9301 18.1778 10.944 18.2315 10.9584C18.6448 11.0691 19.0581 11.1796 19.4714 11.2902C19.7645 11.3687 20.0576 11.4471 20.3507 11.5257C20.4403 11.5497 20.5299 11.5737 20.6195 11.5976C20.742 11.6304 20.8645 11.6632 20.987 11.696C21.023 11.7057 21.059 11.7153 21.0961 11.7252C21.232 11.7617 21.3664 11.7992 21.5 11.8438C21.5155 13.1431 21.5309 14.4425 21.5469 15.7812C22.1637 15.9456 22.7805 16.11 23.416 16.2793C23.8021 16.3822 24.1882 16.4852 24.5743 16.5882C24.6224 16.601 24.6705 16.6139 24.7201 16.6271C25.7384 16.8988 26.7566 17.1713 27.7746 17.4443C27.8975 17.4773 28.0205 17.5103 28.1435 17.5432C28.3377 17.5953 28.5319 17.6474 28.7262 17.6995C28.7963 17.7183 28.8665 17.7372 28.9368 17.756C28.9693 17.7647 29.0019 17.7735 29.0355 17.7825C29.0635 17.7899 29.0915 17.7974 29.1203 17.8052C29.5653 17.925 30.009 18.0485 30.4531 18.1719C30.4531 22.0236 30.4531 25.8753 30.4531 29.8438C30.9636 29.8438 31.4741 29.8438 32 29.8438C32 30.0758 32 30.3078 32 30.5469C24.08 30.5469 16.16 30.5469 8 30.5469C8 30.3148 8 30.0828 8 29.8438C9.11375 29.8205 9.11375 29.8205 10.25 29.7969C10.2345 29.7659 10.2191 29.735 10.2031 29.7031C10.1974 29.5701 10.1944 29.4382 10.1935 29.3052C10.193 29.2641 10.1926 29.2229 10.1921 29.1805C10.1906 29.044 10.1895 28.9076 10.1883 28.7711C10.1873 28.6767 10.1863 28.5822 10.1853 28.4878C10.1828 28.2389 10.1804 27.9899 10.1782 27.741C10.1758 27.4872 10.1732 27.2333 10.1706 26.9794C10.1656 26.4811 10.1608 25.9827 10.1562 25.4844C10.1011 25.5409 10.1011 25.5409 10.0449 25.5986C9.88868 25.7512 9.81775 25.7742 9.60547 25.7803C9.37719 25.7773 9.2499 25.7373 9.07812 25.5781C8.90003 25.3147 8.91635 25.0538 8.91718 24.7474C8.91693 24.6941 8.91668 24.6408 8.91643 24.5859C8.91613 24.4731 8.91619 24.3604 8.91659 24.2477C8.91699 24.0769 8.91565 23.9062 8.91415 23.7354C8.90996 22.3883 8.90996 22.3883 9.39343 21.8356C9.87463 21.3784 10.4184 21.3436 11.0469 21.3125C11.0163 21.2937 10.9857 21.2749 10.9542 21.2556C10.6013 21.026 10.3915 20.7947 10.2324 20.4043C10.1528 19.9423 10.2003 19.5626 10.4229 19.1504C10.7176 18.784 11.022 18.5814 11.4863 18.5088C11.8852 18.4758 12.1533 18.5831 12.5 18.7812C12.5155 15.7184 12.5309 12.6556 12.5469 9.5ZM12.2598 21.2188C12.2258 21.2362 12.1918 21.2536 12.1569 21.2715C12.1179 21.2918 12.1179 21.2918 12.0781 21.3125C12.0781 21.328 12.0781 21.3434 12.0781 21.3594C12.2328 21.3594 12.3875 21.3594 12.5469 21.3594C12.5469 21.282 12.5469 21.2047 12.5469 21.125C12.4285 21.125 12.3646 21.1647 12.2598 21.2188Z" fill="#EDEBED"/>
<path d="M21.5 15.7812C22.5847 16.0594 23.6679 16.3383 24.7481 16.6326C25.1173 16.7331 25.4866 16.8331 25.8559 16.9332C25.8939 16.9435 25.9319 16.9538 25.9711 16.9644C27.0175 17.2479 28.0652 17.5265 29.1129 17.805C29.2584 17.8437 29.4038 17.8824 29.5493 17.9211C29.6492 17.9477 29.7492 17.9742 29.8491 18.0007C29.9084 18.0165 29.9678 18.0322 30.0289 18.0485C30.0805 18.0622 30.1322 18.0759 30.1855 18.0901C30.2754 18.1148 30.3646 18.1424 30.4531 18.1719C30.4531 22.0236 30.4531 25.8753 30.4531 29.8438C30.9636 29.8438 31.4741 29.8438 32 29.8438C32 30.0758 32 30.3078 32 30.5469C24.08 30.5469 16.16 30.5469 8 30.5469C8 30.3148 8 30.0828 8 29.8438C8.62805 29.8365 9.2561 29.8295 9.88415 29.823C10.176 29.8199 10.4678 29.8168 10.7596 29.8134C13.2714 29.784 13.2714 29.784 14.5156 29.8438C14.5155 29.7822 14.5154 29.7206 14.5153 29.6572C14.5144 29.0785 14.5137 28.4997 14.5132 27.921C14.513 27.6234 14.5126 27.3258 14.5121 27.0283C14.5116 26.7414 14.5113 26.4544 14.5112 26.1675C14.5111 26.0578 14.5109 25.9481 14.5107 25.8383C14.5103 25.6852 14.5103 25.5321 14.5103 25.379C14.5101 25.3332 14.51 25.2873 14.5098 25.2401C14.5099 25.1986 14.5099 25.1571 14.51 25.1144C14.5099 25.06 14.5099 25.06 14.5099 25.0045C14.5156 24.9219 14.5156 24.9219 14.5625 24.875C14.6271 24.8705 14.692 24.8693 14.7568 24.8694C14.8194 24.8693 14.8194 24.8693 14.8834 24.8692C14.9298 24.8693 14.9762 24.8695 15.0239 24.8697C15.0978 24.8697 15.0978 24.8697 15.1732 24.8697C15.3335 24.8697 15.4937 24.8701 15.654 24.8704C15.7526 24.8705 15.8512 24.8705 15.9498 24.8706C16.3165 24.8708 16.6831 24.8715 17.0498 24.8721C18.2781 24.8735 18.2781 24.8735 19.5312 24.875C19.5312 26.5147 19.5312 28.1544 19.5312 29.8438C20.1809 29.8438 20.8306 29.8438 21.5 29.8438C21.5 25.2031 21.5 20.5625 21.5 15.7812Z" fill="#FAE3BE"/>
<path d="M14.6459 24.8692C14.7008 24.8693 14.7008 24.8693 14.7568 24.8693C14.8194 24.8692 14.8194 24.8692 14.8834 24.8691C14.9298 24.8693 14.9762 24.8695 15.0239 24.8697C15.0978 24.8696 15.0978 24.8696 15.1732 24.8696C15.3335 24.8697 15.4937 24.87 15.654 24.8704C15.7526 24.8705 15.8512 24.8705 15.9498 24.8705C16.3165 24.8708 16.6831 24.8714 17.0498 24.872C18.2781 24.8735 18.2781 24.8735 19.5312 24.875C19.5312 26.5147 19.5312 28.1543 19.5312 29.8437C23.6459 29.8437 27.7606 29.8437 32 29.8437C32 30.0758 32 30.3078 32 30.5468C24.08 30.5468 16.16 30.5468 8 30.5468C8 30.3148 8 30.0828 8 29.8437C8.62805 29.8364 9.2561 29.8295 9.88415 29.823C10.176 29.8199 10.4678 29.8168 10.7596 29.8133C13.2714 29.784 13.2714 29.784 14.5156 29.8437C14.5155 29.7822 14.5154 29.7206 14.5153 29.6572C14.5144 29.0784 14.5137 28.4997 14.5132 27.921C14.513 27.6234 14.5126 27.3258 14.5121 27.0282C14.5116 26.7413 14.5113 26.4544 14.5112 26.1675C14.5111 26.0578 14.5109 25.948 14.5107 25.8383C14.5103 25.6852 14.5103 25.5321 14.5103 25.379C14.5101 25.3331 14.51 25.2873 14.5098 25.24C14.5099 25.1986 14.5099 25.1571 14.51 25.1143C14.5099 25.06 14.5099 25.06 14.5099 25.0045C14.5178 24.8913 14.5327 24.877 14.6459 24.8692Z" fill="#ABB6C6"/>
<path d="M12.5938 9.5C12.9689 9.53084 13.3247 9.63563 13.6864 9.73419C13.7596 9.75395 13.8329 9.77368 13.9061 9.79339C14.0643 9.836 14.2225 9.87877 14.3806 9.92165C14.6325 9.99 14.8846 10.058 15.1367 10.126C15.4059 10.1986 15.675 10.2712 15.9442 10.3439C16.6538 10.5355 17.3637 10.7261 18.0738 10.9161C18.1788 10.9443 18.2838 10.9724 18.3889 11.0005C18.7497 11.0971 19.1106 11.1937 19.4714 11.2902C19.7645 11.3687 20.0577 11.4471 20.3508 11.5257C20.4403 11.5497 20.5299 11.5737 20.6195 11.5976C20.742 11.6304 20.8645 11.6632 20.9871 11.696C21.023 11.7057 21.059 11.7153 21.0961 11.7252C21.2321 11.7617 21.3664 11.7992 21.5 11.8438C21.5 17.7838 21.5 23.7238 21.5 29.8438C21.2216 29.8438 20.9432 29.8438 20.6563 29.8438C20.6563 24.1358 20.6563 18.4278 20.6563 12.5469C20.5325 12.5314 20.4088 12.5159 20.2813 12.5C20.206 12.4833 20.1311 12.4648 20.057 12.4438C20.0172 12.4327 19.9774 12.4216 19.9365 12.4102C19.8737 12.3923 19.8737 12.3923 19.8096 12.374C19.718 12.3485 19.6264 12.3229 19.5348 12.2975C19.4644 12.2779 19.4644 12.2779 19.3926 12.2579C19.1621 12.1946 18.9307 12.1349 18.6993 12.0752C18.3889 11.9948 18.0792 11.9129 17.7705 11.8262C17.3974 11.7213 17.0231 11.6211 16.6485 11.5215C16.6183 11.5134 16.5881 11.5054 16.5569 11.4971C16.5266 11.4891 16.4963 11.481 16.4651 11.4727C16.4039 11.4564 16.3427 11.4402 16.2815 11.4239C16.2512 11.4158 16.2209 11.4078 16.1897 11.3995C15.7442 11.2809 15.2992 11.1607 14.8541 11.0407C14.6981 10.9986 14.5421 10.9567 14.386 10.9149C14.0854 10.8342 13.7849 10.7532 13.4844 10.6719C13.4401 10.6599 13.3957 10.6479 13.35 10.6355C13.2297 10.6029 13.1095 10.5701 12.9893 10.5371C12.9541 10.5276 12.919 10.5181 12.8827 10.5082C12.6461 10.4429 12.6461 10.4429 12.5938 10.3906C12.5897 10.3243 12.5888 10.2577 12.5892 10.1912C12.5894 10.1512 12.5895 10.1112 12.5897 10.0699C12.5901 10.0278 12.5905 9.98574 12.5909 9.94238C12.5911 9.90012 12.5913 9.85785 12.5915 9.8143C12.5921 9.70953 12.5928 9.60477 12.5938 9.5Z" fill="#9CBEE4"/>
<path d="M21.5 15.7812C22.7673 16.0985 24.0286 16.4376 25.2894 16.7796C25.4782 16.8308 25.6671 16.882 25.8559 16.9332C25.8939 16.9435 25.9318 16.9537 25.9709 16.9643C27.0174 17.2478 28.0651 17.5265 29.1129 17.805C29.2584 17.8437 29.4038 17.8824 29.5493 17.9211C29.6492 17.9477 29.7492 17.9742 29.8491 18.0007C29.9084 18.0165 29.9678 18.0322 30.0289 18.0485C30.1064 18.0691 30.1064 18.0691 30.1855 18.0901C30.2754 18.1148 30.3646 18.1424 30.4531 18.1719C30.4531 22.0236 30.4531 25.8753 30.4531 29.8438C30.1128 29.8438 29.7725 29.8438 29.4219 29.8438C29.4219 26.2395 29.4219 22.6353 29.4219 18.9219C29.2981 18.9064 29.1744 18.8909 29.0469 18.875C28.9829 18.8618 28.9192 18.8473 28.8562 18.8302C28.8232 18.8215 28.7903 18.8127 28.7564 18.8037C28.7216 18.7941 28.6868 18.7846 28.651 18.7747C28.6131 18.7646 28.5752 18.7544 28.5362 18.7439C28.4109 18.7102 28.2857 18.6762 28.1605 18.6421C28.0712 18.618 27.982 18.594 27.8928 18.5699C27.6539 18.5055 27.4151 18.4408 27.1764 18.3761C26.9295 18.3091 26.6825 18.2425 26.4355 18.1759C25.9441 18.0433 25.4528 17.9103 24.9615 17.7773C24.3873 17.6218 23.8131 17.4667 23.2388 17.3116C23.0504 17.2607 22.8621 17.2097 22.6737 17.1586C22.5325 17.1204 22.3912 17.0822 22.25 17.0439C22.2005 17.0305 22.1509 17.017 22.0999 17.0031C22.0547 16.9909 22.0095 16.9787 21.9629 16.9661C21.9047 16.9503 21.9047 16.9503 21.8453 16.9343C21.7311 16.9054 21.6155 16.8825 21.5 16.8594C21.5 16.5036 21.5 16.1478 21.5 15.7812Z" fill="#BD8B8C"/>
<path d="M14.5625 25.9531C16.2022 25.9531 17.8419 25.9531 19.5312 25.9531C19.5312 27.237 19.5312 28.5209 19.5312 29.8438C17.8916 29.8438 16.2519 29.8438 14.5625 29.8438C14.5625 28.5598 14.5625 27.2759 14.5625 25.9531Z" fill="#CADDF4"/>
<path d="M23.4688 23.4688C25.1239 23.4688 26.7791 23.4688 28.4844 23.4688C28.4844 24.0875 28.4844 24.7062 28.4844 25.3438C26.8292 25.3438 25.1741 25.3438 23.4688 25.3438C23.4688 24.725 23.4688 24.1063 23.4688 23.4688Z" fill="#CADDF4"/>
<path d="M23.4688 20.3281C25.1239 20.3281 26.7791 20.3281 28.4844 20.3281C28.4844 20.9314 28.4844 21.5347 28.4844 22.1562C26.8292 22.1562 25.1741 22.1562 23.4688 22.1562C23.4688 21.553 23.4688 20.9497 23.4688 20.3281Z" fill="#CADDF4"/>
<path d="M17.375 26C18.0866 26 18.7981 26 19.5312 26C19.5312 27.2684 19.5312 28.5369 19.5312 29.8438C18.8197 29.8438 18.1081 29.8438 17.375 29.8438C17.375 28.5753 17.375 27.3069 17.375 26Z" fill="#CADDF4"/>
<path d="M15.2656 17.1406C16.4412 17.1406 17.6169 17.1406 18.8281 17.1406C18.8281 17.7594 18.8281 18.3781 18.8281 19.0156C17.6525 19.0156 16.4769 19.0156 15.2656 19.0156C15.2656 18.3969 15.2656 17.7781 15.2656 17.1406Z" fill="#C7DCF6"/>
<path d="M15.2656 20.3281C16.4412 20.3281 17.6169 20.3281 18.8281 20.3281C18.8281 20.9314 18.8281 21.5347 18.8281 22.1562C17.6525 22.1562 16.4769 22.1562 15.2656 22.1562C15.2656 21.553 15.2656 20.9497 15.2656 20.3281Z" fill="#CADDF4"/>
<path d="M15.2656 14C16.4412 14 17.6169 14 18.8281 14C18.8281 14.6033 18.8281 15.2066 18.8281 15.8281C17.6525 15.8281 16.4769 15.8281 15.2656 15.8281C15.2656 15.2248 15.2656 14.6216 15.2656 14Z" fill="#C7DCF6"/>
<path d="M14.5625 24.875C16.2022 24.875 17.8419 24.875 19.5312 24.875C19.5312 25.2308 19.5312 25.5866 19.5312 25.9531C17.8916 25.9531 16.2519 25.9531 14.5625 25.9531C14.5625 25.5973 14.5625 25.2416 14.5625 24.875Z" fill="#9CBEE4"/>
<path d="M14.5625 25.9531C16.2022 25.9531 17.8419 25.9531 19.5312 25.9531C19.5312 25.9686 19.5312 25.9841 19.5312 26C18.8197 26 18.1081 26 17.375 26C17.375 27.2684 17.375 28.5369 17.375 29.8438C17.1584 29.8438 16.9419 29.8438 16.7188 29.8438C16.7188 28.5753 16.7188 27.3069 16.7188 26C16.0072 26 15.2956 26 14.5625 26C14.5625 25.9845 14.5625 25.9691 14.5625 25.9531Z" fill="#9CBEE4"/>
<path d="M23.4688 23.4688C25.1239 23.4688 26.7791 23.4688 28.4844 23.4688C28.4844 24.0875 28.4844 24.7062 28.4844 25.3438C26.8292 25.3438 25.1741 25.3438 23.4688 25.3438C23.4688 24.725 23.4688 24.1063 23.4688 23.4688Z" fill="#CADDF4"/>
<path d="M27.4531 23.4688C27.7934 23.4688 28.1338 23.4688 28.4844 23.4688C28.4844 24.0875 28.4844 24.7062 28.4844 25.3438C28.1441 25.3438 27.8038 25.3438 27.4531 25.3438C27.4531 24.725 27.4531 24.1063 27.4531 23.4688Z" fill="#9CBEE4"/>
<path d="M10.8544 21.3483C10.9026 21.3483 10.9508 21.3483 11.0004 21.3484C11.102 21.3485 11.2035 21.3489 11.305 21.3494C11.459 21.3503 11.6129 21.3504 11.7669 21.3504C11.8661 21.3506 11.9652 21.3509 12.0644 21.3512C12.1324 21.3513 12.1324 21.3513 12.2019 21.3514C12.8492 21.3558 13.3827 21.4022 13.8799 21.863C14.1701 22.1775 14.332 22.5457 14.3364 22.972C14.3373 23.048 14.3373 23.048 14.3382 23.1256C14.3386 23.1801 14.3389 23.2347 14.3393 23.2909C14.3397 23.3471 14.34 23.4034 14.3404 23.4614C14.3411 23.5805 14.3416 23.6996 14.3419 23.8187C14.3428 24.0007 14.3448 24.1826 14.3469 24.3646C14.3473 24.4803 14.3477 24.596 14.3481 24.7118C14.3489 24.7661 14.3497 24.8205 14.3506 24.8765C14.3498 25.1718 14.3425 25.3553 14.1406 25.5778C13.9877 25.7069 13.8939 25.7604 13.6953 25.7888C13.4982 25.7606 13.4018 25.7055 13.25 25.5778C13.2013 25.5008 13.1541 25.4228 13.1094 25.3435C13.109 25.3971 13.1086 25.4507 13.1082 25.5059C13.1046 26.0108 13.1005 26.5157 13.0959 27.0206C13.0935 27.2802 13.0914 27.5397 13.0896 27.7993C13.0879 28.0498 13.0857 28.3002 13.0832 28.5506C13.0823 28.6463 13.0816 28.7419 13.0811 28.8375C13.0803 28.9713 13.0789 29.105 13.0774 29.2388C13.0773 29.2785 13.0772 29.3181 13.0771 29.359C13.0724 29.6908 13.0724 29.6908 12.9687 29.8435C12.622 29.8467 12.2752 29.8492 11.9285 29.8508C11.7675 29.8515 11.6065 29.8525 11.4455 29.8541C11.2605 29.8559 11.0755 29.8566 10.8905 29.8572C10.8325 29.8579 10.7746 29.8587 10.7148 29.8594C10.6614 29.8594 10.6079 29.8594 10.5528 29.8594C10.5055 29.8597 10.4583 29.8601 10.4096 29.8604C10.3724 29.8548 10.3352 29.8492 10.2969 29.8435C10.1759 29.662 10.1887 29.5102 10.1882 29.2996C10.1877 29.2584 10.1872 29.2173 10.1867 29.1749C10.1853 29.0387 10.1845 28.9025 10.1837 28.7663C10.1828 28.6719 10.1819 28.5775 10.1809 28.4831C10.1785 28.2346 10.1767 27.9861 10.1749 27.7375C10.1731 27.484 10.1707 27.2304 10.1683 26.9769C10.1638 26.4793 10.1598 25.9817 10.1562 25.4841C10.1195 25.5218 10.0828 25.5595 10.0449 25.5984C9.88866 25.7509 9.81773 25.7739 9.60545 25.78C9.37717 25.777 9.24988 25.737 9.07811 25.5778C8.90001 25.3144 8.91633 25.0535 8.91716 24.7471C8.91691 24.6938 8.91667 24.6405 8.91641 24.5856C8.91611 24.4729 8.91617 24.3601 8.91657 24.2474C8.91697 24.0766 8.91563 23.9059 8.91414 23.7352C8.90994 22.388 8.90994 22.388 9.39341 21.8354C9.82102 21.4291 10.2854 21.3441 10.8544 21.3483Z" fill="#E14242"/>
<path d="M12.5469 18.8279C12.8784 19.1397 13.0681 19.4613 13.0889 19.9207C13.0748 20.3377 12.9251 20.7538 12.6289 21.0559C12.3151 21.3193 12.0289 21.3806 11.627 21.3855C11.5708 21.3866 11.5708 21.3866 11.5134 21.3876C11.1474 21.3813 10.841 21.24 10.5782 20.9841C10.2688 20.5877 10.1572 20.2208 10.2032 19.7185C10.2987 19.273 10.539 18.9515 10.9063 18.6873C11.4297 18.4131 12.0895 18.4386 12.5469 18.8279Z" fill="#FECEBF"/>
<path d="M11.3281 26.2812C11.5447 26.2812 11.7612 26.2812 11.9844 26.2812C11.9844 27.4569 11.9844 28.6325 11.9844 29.8438C11.7678 29.8438 11.5513 29.8438 11.3281 29.8438C11.3281 28.6681 11.3281 27.4925 11.3281 26.2812Z" fill="#B73535"/>
<path d="M23.4688 26.6562C25.1239 26.6562 26.7791 26.6562 28.4844 26.6562C28.4844 27.275 28.4844 27.8937 28.4844 28.5312C26.8292 28.5312 25.1741 28.5312 23.4688 28.5312C23.4688 27.9125 23.4688 27.2938 23.4688 26.6562Z" fill="#CADDF4"/>
<path d="M27.4531 26.6562C27.7934 26.6562 28.1338 26.6562 28.4844 26.6562C28.4844 27.275 28.4844 27.8937 28.4844 28.5312C28.1441 28.5312 27.8038 28.5312 27.4531 28.5312C27.4531 27.9125 27.4531 27.2938 27.4531 26.6562Z" fill="#9CBEE4"/>
<path d="M27.4531 20.3281C27.7934 20.3281 28.1338 20.3281 28.4844 20.3281C28.4844 20.9314 28.4844 21.5347 28.4844 22.1562C28.1441 22.1562 27.8038 22.1562 27.4531 22.1562C27.4531 21.553 27.4531 20.9497 27.4531 20.3281Z" fill="#9CBEE4"/>
<path d="M17.8438 20.3281C18.1686 20.3281 18.4934 20.3281 18.8281 20.3281C18.8281 20.9314 18.8281 21.5347 18.8281 22.1562C18.5033 22.1562 18.1784 22.1562 17.8438 22.1562C17.8438 21.553 17.8438 20.9497 17.8438 20.3281Z" fill="#9CBEE4"/>
<path d="M17.8438 14C18.1686 14 18.4934 14 18.8281 14C18.8281 14.6033 18.8281 15.2066 18.8281 15.8281C18.5033 15.8281 18.1784 15.8281 17.8438 15.8281C17.8438 15.2248 17.8438 14.6216 17.8438 14Z" fill="#9CBEE4"/>
<path d="M17.8438 17.1875C18.1531 17.1875 18.4625 17.1875 18.7812 17.1875C18.7812 17.7753 18.7812 18.3631 18.7812 18.9688C18.4719 18.9688 18.1625 18.9688 17.8438 18.9688C17.8438 18.3809 17.8438 17.7931 17.8438 17.1875Z" fill="#9CBEE4"/>
</g>
<defs>
<clipPath id="clip0_461_378">
<rect width="24" height="24" fill="white" transform="translate(8 8)"/>
</clipPath>
</defs>
</svg>
