<svg width="16" height="16" viewBox="0 0 16 16" fill="none" xmlns="http://www.w3.org/2000/svg">
<path d="M8.00001 14.8305C11.73 14.8305 14.8303 11.7368 14.8303 8.00021C14.8303 4.27021 11.7232 1.16992 7.99316 1.16992C4.25687 1.16992 1.17001 4.27021 1.17001 8.00021C1.17001 11.7368 4.26344 14.8305 8.00001 14.8305ZM8.0003 13.6922C4.83916 13.6922 2.3143 11.1608 2.3143 8.00021C2.3143 4.84592 4.8323 2.30821 7.99316 2.30821C11.1472 2.30821 13.6849 4.84621 13.6917 8.00021C13.6983 11.1611 11.1537 13.6922 7.99973 13.6922M7.99316 9.21221C8.3143 9.21221 8.49516 9.03135 8.50173 8.68335L8.6023 5.14764C8.60916 4.80592 8.34116 4.55164 7.9863 4.55164C7.62459 4.55164 7.3703 4.79935 7.37687 5.14078L7.46401 8.68335C7.47059 9.02478 7.6583 9.21221 7.99316 9.21221ZM7.99316 11.3885C8.37459 11.3885 8.71601 11.0805 8.71601 10.6922C8.71601 10.2971 8.38144 9.99564 7.99316 9.99564C7.59801 9.99564 7.26973 10.3036 7.26973 10.6922C7.26973 11.0739 7.60459 11.3885 7.99316 11.3885Z" fill="#F16868"/>
</svg>
