<svg width="24" height="24" viewBox="0 0 24 24" fill="none" xmlns="http://www.w3.org/2000/svg">
<g clip-path="url(#clip0_830_900)">
<circle cx="12" cy="12" r="12" fill="#F0F7FF"/>
<path fill-rule="evenodd" clip-rule="evenodd" d="M8.89476 5C8.39224 5 7.9103 5.22125 7.55496 5.61508C7.19963 6.0089 7 6.54305 7 7.1V16.9C7 17.457 7.19963 17.9911 7.55496 18.3849C7.9103 18.7788 8.39224 19 8.89476 19H12.6843C13.1868 19 13.6687 18.7788 14.0241 18.3849C14.3794 17.9911 14.579 17.457 14.579 16.9V7.1C14.579 6.54305 14.3794 6.0089 14.0241 5.61508C13.6687 5.22125 13.1868 5 12.6843 5H8.89476ZM15.3957 8.7051C15.5141 8.57387 15.6747 8.50015 15.8422 8.50015C16.0097 8.50015 16.1703 8.57387 16.2887 8.7051L18.8151 11.5051C18.9335 11.6364 19 11.8144 19 12C19 12.1856 18.9335 12.3636 18.8151 12.4949L16.2887 15.2949C16.1696 15.4224 16.0101 15.493 15.8445 15.4914C15.6789 15.4898 15.5205 15.4162 15.4034 15.2864C15.2863 15.1566 15.2198 14.981 15.2184 14.7975C15.217 14.6139 15.2806 14.4371 15.3957 14.3051L16.8439 12.7H11.4211C11.2536 12.7 11.0929 12.6262 10.9745 12.495C10.8561 12.3637 10.7895 12.1857 10.7895 12C10.7895 11.8143 10.8561 11.6363 10.9745 11.505C11.0929 11.3737 11.2536 11.3 11.4211 11.3H16.8439L15.3957 9.6949C15.2773 9.56363 15.2108 9.38561 15.2108 9.2C15.2108 9.01439 15.2773 8.83637 15.3957 8.7051Z" fill="#637593"/>
</g>
<defs>
<clipPath id="clip0_830_900">
<rect width="24" height="24" fill="white"/>
</clipPath>
</defs>
</svg>
