<svg width="24" height="24" viewBox="0 0 24 24" fill="none" xmlns="http://www.w3.org/2000/svg">
<g clip-path="url(#clip0_830_917)">
<circle cx="12" cy="12" r="12" fill="#F0F7FF"/>
<path d="M12 5C12 5 7.6698 8.85667 5.2499 10.9453C5.1729 11.0146 5.11086 11.0997 5.06781 11.1953C5.02476 11.2908 5.00165 11.3946 5 11.5C5 11.6915 5.07375 11.8752 5.20503 12.0107C5.3363 12.1461 5.51435 12.2222 5.7 12.2222H7.1V17.2778C7.1 17.4693 7.17375 17.653 7.30503 17.7885C7.4363 17.9239 7.61435 18 7.8 18H9.9C10.0857 18 10.2637 17.9239 10.395 17.7885C10.5262 17.653 10.6 17.4693 10.6 17.2778V14.3889H13.4V17.2778C13.4 17.4693 13.4738 17.653 13.605 17.7885C13.7363 17.9239 13.9143 18 14.1 18H16.2C16.3857 18 16.5637 17.9239 16.695 17.7885C16.8263 17.653 16.9 17.4693 16.9 17.2778V12.2222H18.3C18.4857 12.2222 18.6637 12.1461 18.795 12.0107C18.9263 11.8752 19 11.6915 19 11.5C18.999 11.3926 18.9744 11.2869 18.9279 11.1908C18.8815 11.0947 18.8144 11.0107 18.7319 10.9453C16.3288 8.85667 12 5 12 5Z" fill="#637593"/>
</g>
<defs>
<clipPath id="clip0_830_917">
<rect width="24" height="24" fill="white"/>
</clipPath>
</defs>
</svg>
