<svg width="40" height="40" viewBox="0 0 40 40" fill="none" xmlns="http://www.w3.org/2000/svg">
<circle cx="20" cy="20" r="20" fill="#F0F7FF"/>
<g clip-path="url(#clip0_461_375)">
<path d="M12.2188 8C13.0695 8 13.9203 8 14.7969 8C14.8762 9.30038 14.9502 10.6006 15.0111 11.902C15.0126 11.9341 15.0141 11.9661 15.0157 11.9992C15.034 12.3926 15.0522 12.786 15.0702 13.1794C15.0857 13.5155 15.1013 13.8515 15.1169 14.1876C15.1387 14.6578 15.1605 15.128 15.1821 15.5983C15.1872 15.7084 15.1923 15.8184 15.1974 15.9285C15.2092 16.1818 15.2207 16.435 15.2313 16.6883C15.2333 16.7343 15.2353 16.7803 15.2374 16.8278C15.2411 16.9133 15.2446 16.9988 15.248 17.0843C15.2518 17.2829 15.2518 17.2829 15.3125 17.4688C15.3513 17.45 15.39 17.4312 15.43 17.4118C15.5159 17.3701 15.6018 17.3285 15.6877 17.2868C15.7194 17.2714 15.7511 17.2561 15.7838 17.2402C15.8873 17.1901 15.9908 17.1399 16.0942 17.0897C16.1294 17.0727 16.1645 17.0556 16.2007 17.0381C16.5809 16.8538 16.5809 16.8538 16.9611 16.6694C16.9936 16.6537 17.0261 16.6379 17.0595 16.6217C17.0915 16.6062 17.1235 16.5907 17.1564 16.5747C17.2202 16.5438 17.284 16.5128 17.3478 16.4819C17.5061 16.4051 17.6645 16.3284 17.823 16.252C18.1261 16.1058 18.4284 15.9582 18.7287 15.8065C18.8709 15.7347 19.0134 15.6636 19.1559 15.5926C19.2239 15.5585 19.2917 15.5241 19.3594 15.4893C19.4531 15.4411 19.5473 15.3941 19.6417 15.3473C19.6951 15.3202 19.7486 15.293 19.8037 15.2651C20.1095 15.1703 20.4095 15.3925 20.6821 15.5275C20.7253 15.5487 20.7686 15.57 20.8132 15.5918C20.9055 15.6372 20.9979 15.6827 21.0901 15.7282C21.33 15.8465 21.5702 15.9642 21.8104 16.0821C21.8573 16.1051 21.9042 16.1282 21.9526 16.1519C22.4281 16.3854 22.9054 16.6152 23.3835 16.8432C23.5781 16.936 23.7724 17.0291 23.9668 17.1221C24.1015 17.1866 24.2362 17.251 24.3709 17.3154C24.4127 17.3353 24.4545 17.3553 24.4975 17.3759C24.5293 17.3911 24.561 17.4062 24.5938 17.4219C24.6773 16.4991 24.7347 15.5753 24.7901 14.6505C24.8028 14.44 24.8156 14.2295 24.8283 14.0189C24.8524 13.6214 24.8764 13.2239 24.9004 12.8264C24.9433 12.114 24.9864 11.4016 25.0295 10.6891C25.0446 10.4399 25.0597 10.1907 25.0747 9.94146C25.084 9.7862 25.0934 9.63094 25.1028 9.47568C25.1071 9.40435 25.1114 9.33303 25.1157 9.2617C25.1215 9.16344 25.1275 9.06519 25.1334 8.96693C25.1367 8.91226 25.14 8.8576 25.1434 8.80127C25.1613 8.53404 25.1826 8.26704 25.2031 8C26.0539 8 26.9047 8 27.7812 8C27.8895 9.50756 27.9841 11.0155 28.0725 12.5244C28.0858 12.7512 28.0992 12.978 28.1125 13.2048C28.1154 13.254 28.1154 13.254 28.1184 13.3041C28.1223 13.3708 28.1262 13.4374 28.1302 13.5041C28.1666 14.1214 28.2028 14.7387 28.239 15.356C28.27 15.8842 28.3011 16.4125 28.3323 16.9407C28.3688 17.5589 28.4053 18.1771 28.4416 18.7952C28.4454 18.8611 28.4493 18.927 28.4532 18.9928C28.4551 19.0252 28.457 19.0576 28.4589 19.091C28.4723 19.318 28.4857 19.5451 28.4991 19.7721C28.5171 20.0767 28.535 20.3814 28.5528 20.6861C28.5593 20.7976 28.5659 20.9092 28.5725 21.0207C28.5815 21.1731 28.5904 21.3254 28.5993 21.4778C28.6019 21.5217 28.6045 21.5656 28.6073 21.6108C28.6222 21.8713 28.6273 22.1298 28.625 22.3906C28.6718 22.3771 28.7187 22.3637 28.7669 22.3498C29.3489 22.1842 29.9351 22.039 30.5235 21.8982C30.6837 21.8598 30.8439 21.8211 31.0041 21.7823C31.1064 21.7577 31.2088 21.7331 31.3112 21.7086C31.3826 21.6912 31.3826 21.6912 31.4556 21.6735C31.4997 21.663 31.5439 21.6525 31.5895 21.6417C31.6281 21.6324 31.6668 21.6231 31.7067 21.6135C31.8125 21.5938 31.8125 21.5938 32 21.5938C32 25.0278 32 28.4619 32 32C24.0955 32 16.1909 32 8.04688 32C8.04688 28.5659 8.04688 25.1319 8.04688 21.5938C8.67977 21.6992 8.67977 21.6992 8.91702 21.7576C8.97016 21.7706 9.02331 21.7836 9.07807 21.797C9.13332 21.8107 9.18856 21.8244 9.24548 21.8386C9.33291 21.86 9.33291 21.86 9.42211 21.882C9.54417 21.912 9.6662 21.9421 9.78821 21.9724C9.94461 22.0112 10.1011 22.0497 10.2576 22.0881C10.4076 22.1249 10.5575 22.1619 10.7074 22.1989C10.7636 22.2127 10.8198 22.2266 10.8777 22.2408C10.9552 22.26 10.9552 22.26 11.0343 22.2797C11.0798 22.2909 11.1254 22.3022 11.1723 22.3138C11.2812 22.3437 11.2812 22.3438 11.375 22.3906C11.3767 22.3597 11.3783 22.3288 11.38 22.2969C11.526 19.5705 11.6848 16.8449 11.8448 14.1193C11.8729 13.6403 11.9009 13.1612 11.9289 12.6821C11.9562 12.2134 11.9837 11.7446 12.0111 11.2759C12.0274 10.9988 12.0436 10.7217 12.0598 10.4446C12.0749 10.1866 12.09 9.9287 12.1052 9.67077C12.1107 9.57674 12.1162 9.48272 12.1217 9.38869C12.1292 9.25985 12.1368 9.13101 12.1444 9.00218C12.1475 8.9474 12.1475 8.9474 12.1507 8.89152C12.1685 8.59368 12.1939 8.29763 12.2188 8Z" fill="#FAE4C2"/>
<path d="M14.5625 26.3281C18.1667 26.3281 21.7709 26.3281 25.4844 26.3281C25.4844 27.3181 25.4844 28.3081 25.4844 29.3281C27.6345 29.3281 29.7847 29.3281 32 29.3281C32 30.2098 32 31.0916 32 32C24.0955 32 16.1909 32 8.04688 32C8.04688 31.1183 8.04688 30.2366 8.04688 29.3281C10.197 29.3281 12.3472 29.3281 14.5625 29.3281C14.5625 28.3381 14.5625 27.3481 14.5625 26.3281Z" fill="#FDDAA8"/>
<path d="M25.2031 8C26.0539 8 26.9047 8 27.7812 8C27.8895 9.50707 27.984 11.0145 28.0725 12.5229C28.0858 12.7496 28.0992 12.9763 28.1125 13.203C28.1145 13.2357 28.1164 13.2685 28.1184 13.3023C28.1223 13.3689 28.1262 13.4355 28.1302 13.5021C28.1666 14.1192 28.2028 14.7363 28.239 15.3534C28.2721 15.9166 28.3053 16.4798 28.3386 17.043C28.373 17.6256 28.4073 18.2082 28.4416 18.7908C28.4454 18.8567 28.4493 18.9225 28.4532 18.9884C28.456 19.037 28.456 19.037 28.4589 19.0865C28.4723 19.3134 28.4857 19.5403 28.4991 19.7671C28.5171 20.0717 28.535 20.3762 28.5528 20.6808C28.5593 20.7922 28.5659 20.9037 28.5725 21.0151C28.5815 21.1675 28.5904 21.3198 28.5993 21.4722C28.6019 21.5159 28.6045 21.5597 28.6073 21.6048C28.6231 21.8827 28.628 22.1592 28.625 22.4375C28.0369 22.5852 27.4487 22.7324 26.8602 22.8788C26.7632 22.903 26.6661 22.9272 26.5691 22.9515C26.4322 22.9856 26.2952 23.0193 26.1582 23.0527C26.1209 23.0621 26.0837 23.0714 26.0453 23.0811C25.8468 23.1289 25.6934 23.1406 25.4844 23.1406C25.4844 21.4081 25.4844 19.6756 25.4844 17.8906C25.3916 17.8597 25.2987 17.8287 25.2031 17.7969C25.0133 17.7077 24.8274 17.6111 24.6406 17.5156C24.6708 16.5562 24.7262 15.599 24.7854 14.641C24.7983 14.4308 24.8111 14.2205 24.824 14.0102C24.8455 13.6581 24.8671 13.306 24.8887 12.954C24.9164 12.5037 24.944 12.0535 24.9715 11.6033C24.9953 11.213 25.0192 10.8228 25.0431 10.4326C25.0507 10.3085 25.0583 10.1844 25.0659 10.0602C25.0779 9.86482 25.0899 9.66939 25.1019 9.47397C25.1063 9.40279 25.1107 9.33161 25.115 9.26044C25.121 9.16239 25.1271 9.06434 25.1331 8.9663C25.1365 8.91176 25.1398 8.85721 25.1433 8.80101C25.1614 8.53387 25.1826 8.26696 25.2031 8Z" fill="#BD8B8B"/>
<path d="M12.2188 8C13.0695 8 13.9203 8 14.7969 8C14.9019 9.72245 14.9909 11.4451 15.0702 13.1688C15.0841 13.4697 15.0981 13.7705 15.1122 14.0713C15.1259 14.3657 15.1396 14.66 15.1533 14.9543C15.1575 15.0458 15.1618 15.1372 15.166 15.2286C15.2021 16.0065 15.2355 16.7844 15.2656 17.5625C14.9408 17.7249 14.9408 17.7249 14.6094 17.8906C14.5939 19.6231 14.5784 21.3556 14.5625 23.1406C13.9829 23.0879 13.9829 23.0879 13.7559 23.0256C13.7057 23.0122 13.6555 22.9987 13.6038 22.9848C13.5518 22.9705 13.4998 22.9562 13.4463 22.9414C12.9947 22.8201 12.5429 22.7073 12.0854 22.6103C12.0466 22.6019 12.0077 22.5934 11.9677 22.5847C11.9345 22.5777 11.9013 22.5707 11.8672 22.5635C11.7599 22.534 11.6591 22.4983 11.5552 22.4589C11.5046 22.4398 11.5046 22.4398 11.4529 22.4203C11.4272 22.4105 11.4015 22.4007 11.375 22.3906C11.5224 19.633 11.683 16.8762 11.8448 14.1193C11.8729 13.6403 11.9009 13.1612 11.9289 12.6821C11.9562 12.2134 11.9837 11.7446 12.0111 11.2759C12.0274 10.9988 12.0436 10.7217 12.0598 10.4446C12.0749 10.1866 12.09 9.9287 12.1052 9.67077C12.1107 9.57674 12.1162 9.48272 12.1217 9.38869C12.1292 9.25985 12.1368 9.13101 12.1444 9.00218C12.1475 8.9474 12.1475 8.9474 12.1507 8.89152C12.1685 8.59368 12.1939 8.29763 12.2188 8Z" fill="#BD8B8C"/>
<path d="M8.04688 21.5938C8.67972 21.6992 8.67972 21.6992 8.93449 21.7633C8.99164 21.7775 9.04878 21.7918 9.10766 21.8065C9.19754 21.8292 9.19754 21.8292 9.28925 21.8525C9.35356 21.8686 9.41789 21.8847 9.48222 21.9008C9.65045 21.943 9.81862 21.9855 9.98677 22.0279C10.1218 22.062 10.2569 22.0959 10.392 22.1298C11.0033 22.283 11.6142 22.4375 12.2233 22.5994C12.4881 22.6695 12.7539 22.7332 13.0215 22.792C13.1079 22.8114 13.1943 22.8308 13.2808 22.8502C13.3435 22.8642 13.3435 22.8642 13.4075 22.8786C13.5992 22.9215 13.7909 22.9648 13.9824 23.0088C14.0149 23.016 14.0473 23.0233 14.0808 23.0308C14.2422 23.0681 14.3655 23.1124 14.5156 23.1875C14.5156 25.2139 14.5156 27.2403 14.5156 29.3281C12.3809 29.3281 10.2462 29.3281 8.04688 29.3281C8.04688 26.7758 8.04688 24.2234 8.04688 21.5938Z" fill="#FCECD3"/>
<path d="M27.9219 10.8125C27.9374 10.8125 27.9528 10.8125 27.9688 10.8125C28.0525 12.2258 28.1362 13.639 28.2196 15.0523C28.2294 15.2193 28.2393 15.3862 28.2492 15.5532C28.2511 15.5865 28.2531 15.6197 28.2551 15.6539C28.2869 16.1917 28.3187 16.7294 28.3506 17.2671C28.3833 17.8191 28.4159 18.3712 28.4485 18.9232C28.4667 19.2332 28.4851 19.5432 28.5035 19.8531C28.5208 20.145 28.5381 20.4368 28.5552 20.7287C28.5615 20.8357 28.5679 20.9427 28.5743 21.0497C28.583 21.196 28.5916 21.3424 28.6001 21.4888C28.6027 21.5309 28.6052 21.5729 28.6079 21.6162C28.6236 21.8903 28.6278 22.163 28.625 22.4375C28.39 22.498 28.1548 22.5581 27.9195 22.6177C27.8395 22.6381 27.7596 22.6585 27.6797 22.6791C27.5646 22.7088 27.4494 22.738 27.3341 22.7671C27.2809 22.7809 27.2809 22.7809 27.2267 22.7951C27.0319 22.8438 26.8589 22.8695 26.6563 22.8594C26.6546 22.8282 26.653 22.7971 26.6513 22.765C26.6339 22.4387 26.6164 22.1125 26.5988 21.7862C26.5922 21.6647 26.5857 21.5432 26.5793 21.4216C26.5699 21.2463 26.5605 21.0709 26.551 20.8956C26.5482 20.8418 26.5453 20.7881 26.5424 20.7327C26.5269 20.4492 26.5062 20.167 26.4793 19.8843C26.4636 19.7079 26.4549 19.5314 26.447 19.3546C26.4434 19.2781 26.4397 19.2017 26.4361 19.1252C26.4343 19.0859 26.4324 19.0465 26.4305 19.006C26.4023 18.4013 26.371 17.7972 26.3282 17.1934C26.2881 16.6273 26.2601 16.061 26.2344 15.4941C26.207 14.891 26.1748 14.2891 26.1291 13.687C26.0978 13.2706 26.0715 12.8541 26.0474 12.4372C26.0432 12.3649 26.039 12.2925 26.0347 12.2202C26.0288 12.119 26.023 12.0177 26.0172 11.9164C26.0122 11.8292 26.0122 11.8292 26.0071 11.7402C25.9991 11.5405 26 11.3405 26 11.1406C26.6342 11.1406 27.2685 11.1406 27.9219 11.1406C27.9219 11.0323 27.9219 10.9241 27.9219 10.8125Z" fill="#AE7374"/>
<path d="M17.4219 28.2031C19.1234 28.2031 20.825 28.2031 22.5781 28.2031C22.5781 29.4561 22.5781 30.7091 22.5781 32C20.8766 32 19.175 32 17.4219 32C17.4219 30.747 17.4219 29.4941 17.4219 28.2031Z" fill="#AE7374"/>
<path d="M25.4844 29.3281C27.6345 29.3281 29.7847 29.3281 32 29.3281C32 30.2098 32 31.0916 32 32C29.8498 32 27.6997 32 25.4844 32C25.4844 31.1183 25.4844 30.2366 25.4844 29.3281Z" fill="#BD8B8C"/>
<path d="M8.04688 29.3281C10.1816 29.3281 12.3162 29.3281 14.5156 29.3281C14.5156 30.2098 14.5156 31.0916 14.5156 32C12.3809 32 10.2462 32 8.04688 32C8.04688 31.1183 8.04688 30.2366 8.04688 29.3281Z" fill="#BD8B8C"/>
<path d="M32 21.5938C32 24.1461 32 26.6984 32 29.3281C31.2884 29.3281 30.5769 29.3281 29.8437 29.3281C29.8418 29.0835 29.8399 28.8389 29.8379 28.5869C29.837 28.5099 29.8362 28.4329 29.8353 28.3535C29.8351 28.2929 29.8348 28.2324 29.8346 28.17C29.8341 28.1383 29.8336 28.1066 29.8331 28.074C29.8331 27.9025 29.8395 27.8345 29.9375 27.6875C29.9518 27.5587 29.9518 27.5587 29.9496 27.4113C29.9499 27.3545 29.9502 27.2977 29.9505 27.2392C29.9503 27.1778 29.9501 27.1165 29.9499 27.0532C29.95 26.9897 29.9501 26.9261 29.9502 26.8625C29.9504 26.7293 29.9502 26.5961 29.9497 26.463C29.9492 26.2922 29.9495 26.1215 29.9501 25.9508C29.9504 25.8196 29.9503 25.6883 29.95 25.5571C29.9499 25.4635 29.9502 25.37 29.9505 25.2764C29.9502 25.2196 29.9499 25.1628 29.9496 25.1043C29.9496 25.0543 29.9495 25.0042 29.9494 24.9526C29.9464 24.8174 29.9464 24.8174 29.8437 24.6875C29.8325 24.5727 29.8325 24.5727 29.8331 24.4349C29.8331 24.3833 29.8331 24.3317 29.8331 24.2785C29.8336 24.2228 29.8341 24.1672 29.8346 24.1098C29.8348 24.0243 29.8348 24.0243 29.835 23.937C29.8355 23.7545 29.8367 23.5721 29.8379 23.3896C29.8384 23.2661 29.8388 23.1425 29.8392 23.019C29.8402 22.7158 29.8418 22.4126 29.8437 22.1094C30.1064 22.0185 30.3684 21.938 30.6386 21.873C30.6719 21.8649 30.7052 21.8567 30.7395 21.8484C30.809 21.8315 30.8785 21.8146 30.948 21.7979C31.0544 21.7723 31.1606 21.7463 31.2668 21.7202C31.3347 21.7037 31.4027 21.6873 31.4706 21.6708C31.5022 21.6631 31.5337 21.6553 31.5662 21.6473C31.7175 21.6113 31.8431 21.5938 32 21.5938Z" fill="#FAE3BE"/>
<path d="M17.4219 28.2031C18.2727 28.2031 19.1234 28.2031 20 28.2031C20 29.4561 20 30.7091 20 32C19.1492 32 18.2984 32 17.4219 32C17.4219 30.747 17.4219 29.4941 17.4219 28.2031Z" fill="#BD8B8C"/>
<path d="M25.2031 8C26.0539 8 26.9047 8 27.7812 8C27.8045 8.30937 27.8277 8.61875 27.8516 8.9375C27.8589 9.03249 27.8662 9.12748 27.8738 9.22534C27.9203 9.86934 27.9219 10.4907 27.9219 11.1406C26.9783 11.1406 26.0347 11.1406 25.0625 11.1406C25.0625 10.0091 25.0625 10.0091 25.0933 9.58844C25.096 9.54704 25.0988 9.50565 25.1016 9.463C25.1117 9.31417 25.1223 9.16539 25.1328 9.0166C25.156 8.68112 25.1792 8.34564 25.2031 8Z" fill="#FBCC8A"/>
<path d="M12.2188 8C13.0695 8 13.9203 8 14.7969 8C14.8201 8.37995 14.8433 8.7599 14.8672 9.15137C14.8745 9.26977 14.8819 9.38818 14.8894 9.51017C14.8952 9.60645 14.901 9.70273 14.9067 9.79901C14.9098 9.84703 14.9128 9.89505 14.9159 9.94453C14.9386 10.3297 14.9375 10.7059 14.9375 11.0938C13.9939 11.0938 13.0503 11.0938 12.0781 11.0938C12.0781 10.0161 12.0781 10.0161 12.1089 9.59302C12.1117 9.55157 12.1144 9.51013 12.1173 9.46743C12.1273 9.31811 12.1379 9.16882 12.1484 9.01953C12.1716 8.68309 12.1948 8.34664 12.2188 8Z" fill="#FCD9A7"/>
<path d="M29.8438 29.3281C30.5553 29.3281 31.2669 29.3281 32 29.3281C32 30.2098 32 31.0916 32 32C31.2884 32 30.5769 32 29.8438 32C29.8438 31.1183 29.8438 30.2366 29.8438 29.3281Z" fill="#AE7474"/>
<path d="M25.2031 8C26.0539 8 26.9047 8 27.7812 8C27.875 9.21875 27.875 9.21875 27.875 9.59375C26.9623 9.59375 26.0497 9.59375 25.1094 9.59375C25.1403 9.06781 25.1713 8.54188 25.2031 8Z" fill="#AE7374"/>
<path d="M12.2188 8C13.0695 8 13.9203 8 14.7969 8C14.8347 8.53013 14.8438 9.06227 14.8438 9.59375C13.9466 9.59375 13.0494 9.59375 12.125 9.59375C12.1559 9.06781 12.1869 8.54188 12.2188 8Z" fill="#BC8B8C"/>
<path d="M10.0625 24.6113C10.1089 24.6129 10.1089 24.6129 10.1563 24.6144C10.1872 24.6144 10.2182 24.6143 10.25 24.6143C10.3866 24.6529 10.442 24.719 10.5313 24.8283C10.5554 24.9578 10.5554 24.9578 10.5563 25.1084C10.557 25.1648 10.5578 25.2213 10.5585 25.2795C10.5582 25.3708 10.5582 25.3708 10.5578 25.4639C10.5581 25.5271 10.5584 25.5904 10.5587 25.6537C10.5592 25.7862 10.559 25.9187 10.5583 26.0512C10.5575 26.2208 10.5586 26.3902 10.5603 26.5597C10.5613 26.6904 10.5612 26.821 10.5608 26.9517C10.5608 27.0444 10.5617 27.1372 10.5626 27.23C10.5578 27.698 10.5578 27.698 10.4212 27.8433C10.2685 27.94 10.1931 27.956 10.0157 27.9221C9.90772 27.8345 9.84324 27.7647 9.78129 27.6408C9.77606 27.554 9.77382 27.467 9.77299 27.38C9.77239 27.3254 9.77179 27.2708 9.77117 27.2145C9.77082 27.1553 9.77047 27.096 9.77012 27.0349C9.76974 26.9742 9.76936 26.9135 9.76897 26.851C9.76827 26.7223 9.7678 26.5937 9.76745 26.465C9.76693 26.3004 9.76532 26.1359 9.76346 25.9714C9.76194 25.8142 9.76173 25.657 9.76133 25.4998C9.76051 25.4408 9.75969 25.3818 9.75884 25.321C9.75898 25.2659 9.75911 25.2109 9.75926 25.1542C9.75898 25.1059 9.75871 25.0575 9.75842 25.0077C9.79021 24.8234 9.87692 24.6697 10.0625 24.6113Z" fill="#B1C5E3"/>
<path d="M22.1094 19.5781C22.6044 19.5781 23.0994 19.5781 23.6094 19.5781C23.6094 20.0731 23.6094 20.5681 23.6094 21.0781C23.1144 21.0781 22.6194 21.0781 22.1094 21.0781C22.1094 20.5831 22.1094 20.0881 22.1094 19.5781Z" fill="#AEC4E3"/>
<path d="M19.25 19.5781C19.745 19.5781 20.24 19.5781 20.75 19.5781C20.75 20.0731 20.75 20.5681 20.75 21.0781C20.255 21.0781 19.76 21.0781 19.25 21.0781C19.25 20.5831 19.25 20.0881 19.25 19.5781Z" fill="#AEC4E3"/>
<path d="M16.3906 19.5781C16.8856 19.5781 17.3806 19.5781 17.8906 19.5781C17.8906 20.0731 17.8906 20.5681 17.8906 21.0781C17.3956 21.0781 16.9006 21.0781 16.3906 21.0781C16.3906 20.5831 16.3906 20.0881 16.3906 19.5781Z" fill="#AFC4E3"/>
<path d="M29.6065 24.5674C29.7533 24.5943 29.8326 24.6283 29.9352 24.7374C30.0528 24.9543 30.0174 25.2285 30.0155 25.4683C30.0157 25.5315 30.0159 25.5947 30.0162 25.6579C30.0165 25.7901 30.016 25.9223 30.0149 26.0546C30.0136 26.2237 30.0144 26.3928 30.0158 26.5619C30.0166 26.6924 30.0164 26.8228 30.0158 26.9533C30.0155 27.0459 30.0162 27.1384 30.017 27.231C30.0108 27.6977 30.0108 27.6977 29.8759 27.8447C29.75 27.9219 29.75 27.9219 29.5801 27.9219C29.3724 27.8603 29.3724 27.8603 29.2813 27.7344C29.2631 27.6066 29.2631 27.6066 29.2623 27.4503C29.2617 27.3918 29.2611 27.3333 29.2605 27.273C29.2606 27.2091 29.2608 27.1452 29.2609 27.0812C29.2607 27.0157 29.2605 26.9501 29.2602 26.8846C29.2598 26.7472 29.2599 26.6098 29.2604 26.4724C29.2609 26.2964 29.2599 26.1205 29.2586 25.9445C29.2577 25.8091 29.2577 25.6737 29.258 25.5383C29.258 25.4734 29.2577 25.4085 29.2571 25.3437C29.2564 25.2529 29.2571 25.1622 29.2577 25.0714C29.2578 25.0198 29.2578 24.9681 29.2578 24.915C29.2953 24.7013 29.3959 24.6077 29.6065 24.5674Z" fill="#AEC4E3"/>
<path d="M27.6846 24.5674C27.8316 24.5944 27.9109 24.6287 28.0136 24.738C28.1299 24.9523 28.0923 25.2228 28.0887 25.4597C28.0886 25.5213 28.0885 25.583 28.0884 25.6465C28.0881 25.7767 28.087 25.9069 28.0853 26.0371C28.0832 26.2038 28.0825 26.3705 28.0824 26.5373C28.0821 26.6966 28.081 26.856 28.0799 27.0153C28.0797 27.0751 28.0794 27.135 28.0791 27.1966C28.0784 27.2521 28.0776 27.3077 28.0769 27.3649C28.0764 27.4137 28.0759 27.4626 28.0754 27.5129C28.0622 27.6437 28.0412 27.7192 27.9688 27.8281C27.8281 27.9219 27.8281 27.9219 27.6641 27.9131C27.4519 27.8638 27.4519 27.8638 27.3594 27.7344C27.3412 27.6066 27.3412 27.6066 27.3404 27.4503C27.3399 27.3918 27.3393 27.3333 27.3386 27.273C27.3387 27.2091 27.3389 27.1452 27.3391 27.0812C27.3389 27.0157 27.3386 26.9501 27.3383 26.8846C27.3379 26.7472 27.338 26.6098 27.3385 26.4724C27.339 26.2964 27.3381 26.1205 27.3367 25.9445C27.3358 25.8091 27.3359 25.6737 27.3361 25.5383C27.3361 25.4734 27.3358 25.4085 27.3353 25.3437C27.3346 25.2529 27.3352 25.1622 27.3359 25.0714C27.3359 25.0198 27.3359 24.9681 27.3359 24.915C27.3734 24.7013 27.474 24.6077 27.6846 24.5674Z" fill="#AEC4E3"/>
<path d="M12.1702 24.6172C12.3099 24.6512 12.363 24.7173 12.4531 24.8279C12.4772 24.9575 12.4772 24.9575 12.4781 25.108C12.4792 25.1927 12.4792 25.1927 12.4803 25.2791C12.4801 25.34 12.4799 25.4008 12.4796 25.4635C12.4799 25.5268 12.4802 25.5901 12.4805 25.6533C12.481 25.7859 12.4808 25.9184 12.4801 26.0509C12.4793 26.2204 12.4804 26.3898 12.482 26.5593C12.4831 26.69 12.483 26.8206 12.4826 26.9513C12.4826 27.0441 12.4835 27.1368 12.4844 27.2296C12.4796 27.6976 12.4796 27.6976 12.343 27.843C12.1903 27.9397 12.1149 27.9557 11.9374 27.9217C11.8057 27.8208 11.7555 27.7657 11.7265 27.6005C11.7264 27.5489 11.7264 27.4972 11.7264 27.444C11.726 27.3854 11.7256 27.3267 11.7251 27.2663C11.7256 27.2025 11.7261 27.1387 11.7267 27.0748C11.7267 27.0092 11.7266 26.9436 11.7265 26.878C11.7264 26.7407 11.727 26.6034 11.7281 26.4661C11.7294 26.29 11.7293 26.114 11.7287 25.938C11.7284 25.8026 11.7287 25.6672 11.7293 25.5318C11.7295 25.4669 11.7295 25.402 11.7293 25.3371C11.7292 25.2465 11.7301 25.1558 11.731 25.0651C11.7313 25.0136 11.7315 24.962 11.7318 24.9088C11.7499 24.7811 11.7499 24.7811 11.8099 24.6943C11.9238 24.6183 12.0362 24.6211 12.1702 24.6172Z" fill="#AEC4E3"/>
<path d="M22.1094 22.8594C22.6044 22.8594 23.0994 22.8594 23.6094 22.8594C23.6094 23.3389 23.6094 23.8184 23.6094 24.3125C23.1144 24.3125 22.6194 24.3125 22.1094 24.3125C22.1094 23.833 22.1094 23.3534 22.1094 22.8594Z" fill="#AEC4E3"/>
<path d="M19.25 22.8594C19.745 22.8594 20.24 22.8594 20.75 22.8594C20.75 23.3389 20.75 23.8184 20.75 24.3125C20.255 24.3125 19.76 24.3125 19.25 24.3125C19.25 23.833 19.25 23.3534 19.25 22.8594Z" fill="#AEC4E3"/>
<path d="M16.3906 22.8594C16.8856 22.8594 17.3806 22.8594 17.8906 22.8594C17.8906 23.3389 17.8906 23.8184 17.8906 24.3125C17.3956 24.3125 16.9006 24.3125 16.3906 24.3125C16.3906 23.833 16.3906 23.3534 16.3906 22.8594Z" fill="#AEC4E3"/>
<path d="M25.1563 9.64062C25.4192 9.64062 25.6822 9.64062 25.9531 9.64062C25.9876 10.1274 26.0047 10.6059 26 11.0938C25.7061 11.0938 25.4122 11.0938 25.1094 11.0938C25.1081 10.9395 25.1072 10.7852 25.1065 10.6309C25.1061 10.5878 25.1057 10.5448 25.1053 10.5005C25.1042 10.2104 25.123 9.92885 25.1563 9.64062Z" fill="#FDDAA7"/>
<path d="M25.2031 8C25.4197 8 25.6363 8 25.8594 8C25.8748 8.52594 25.8903 9.05187 25.9062 9.59375C25.6433 9.59375 25.3803 9.59375 25.1094 9.59375C25.1403 9.06781 25.1713 8.54188 25.2031 8Z" fill="#BC8A8B"/>
</g>
<defs>
<clipPath id="clip0_461_375">
<rect width="24" height="24" fill="white" transform="translate(8 8)"/>
</clipPath>
</defs>
</svg>
