<svg width="24" height="25" viewBox="0 0 24 25" fill="none" xmlns="http://www.w3.org/2000/svg">
<g filter="url(#filter0_d_451_1298)">
<path d="M13.9883 1.99035C14.0201 1.99042 14.0519 1.99049 14.0847 1.99056C14.5412 1.99211 14.9891 1.99995 15.4375 2.09387C15.468 2.10008 15.4984 2.10629 15.5298 2.11268C17.0417 2.42895 18.4164 3.11384 19.5312 4.18762C19.5622 4.21725 19.5622 4.21725 19.5937 4.24748C19.8902 4.53324 20.1633 4.82379 20.4062 5.15637C20.4331 5.19234 20.4599 5.22831 20.4867 5.26428C20.6754 5.52025 20.8428 5.78631 21 6.06262C21.0114 6.08236 21.0228 6.10211 21.0345 6.12245C21.7097 7.30208 22.0149 8.63854 22.0098 9.9884C22.0097 10.0202 22.0096 10.052 22.0096 10.0848C22.008 10.5413 22.0002 10.9892 21.9062 11.4376C21.8969 11.4833 21.8969 11.4833 21.8874 11.5299C21.5712 13.0419 20.8863 14.4165 19.8125 15.5314C19.7927 15.552 19.773 15.5726 19.7526 15.5938C19.4669 15.8903 19.1763 16.1634 18.8438 16.4064C18.8078 16.4332 18.7718 16.46 18.7358 16.4868C18.4799 16.6755 18.2142 16.8437 17.9375 17.0001C17.9154 17.0127 17.8933 17.0253 17.8705 17.0382C17.1475 17.4452 16.3609 17.7186 15.5488 17.8849C15.5264 17.8895 15.5039 17.8941 15.4807 17.8988C15.0221 17.986 14.5682 18.011 14.1023 18.01C14.0104 18.0099 13.9186 18.0106 13.8267 18.0114C13.4088 18.0128 13.0058 17.9751 12.5937 17.9064C12.5405 17.8975 12.5405 17.8975 12.4861 17.8886C11.134 17.6457 9.85116 17.0211 8.8125 16.1251C8.78921 16.1053 8.76593 16.0855 8.74194 16.0651C8.31991 15.696 7.92393 15.2975 7.59375 14.8439C7.56698 14.8079 7.54021 14.772 7.51342 14.7361C7.32467 14.4801 7.15644 14.2144 7 13.9376C6.98743 13.9155 6.97486 13.8934 6.96191 13.8706C6.55487 13.1477 6.28146 12.3611 6.11523 11.5489C6.11063 11.5265 6.10602 11.504 6.10128 11.4809C6.00834 10.9919 5.98834 10.5084 5.99023 10.0118C5.9903 9.98003 5.99037 9.94822 5.99044 9.91544C5.99199 9.45891 5.99983 9.01103 6.09375 8.56262C6.09996 8.53215 6.10616 8.50169 6.11256 8.4703C6.42883 6.95837 7.11372 5.58373 8.1875 4.46887C8.20725 4.44826 8.22701 4.42766 8.24736 4.40643C8.53312 4.10992 8.82366 3.8368 9.15625 3.59387C9.19222 3.56705 9.22819 3.54024 9.26416 3.51342C9.52008 3.32475 9.78579 3.15654 10.0625 3.00012C10.0846 2.98755 10.1067 2.97498 10.1295 2.96203C10.8524 2.55499 11.639 2.28159 12.4512 2.11535C12.4736 2.11075 12.4961 2.10614 12.5192 2.1014C13.0082 2.00847 13.4917 1.98846 13.9883 1.99035Z" fill="#FFD24E"/>
</g>
<path d="M13.0122 4.00082C13.0359 4.00064 13.0597 4.00045 13.0841 4.00026C13.1623 3.99979 13.2405 4.0001 13.3186 4.00046C13.3731 4.00039 13.4276 4.00028 13.4821 4.00015C13.5962 3.99999 13.7103 4.00022 13.8244 4.00072C13.9705 4.00133 14.1166 4.00098 14.2627 4.00034C14.3752 3.99995 14.4877 4.00007 14.6002 4.00035C14.6541 4.00042 14.708 4.00033 14.7618 4.00009C14.8372 3.99981 14.9125 4.00023 14.9878 4.00082C15.01 4.00061 15.0321 4.00039 15.055 4.00017C15.1967 4.00223 15.2767 4.02823 15.3895 4.12153C15.5023 4.25157 15.5124 4.35508 15.5126 4.51962C15.5131 4.54193 15.5135 4.56425 15.514 4.58723C15.5152 4.65801 15.5158 4.72877 15.5164 4.79956C15.5171 4.84775 15.5179 4.89594 15.5188 4.94412C15.5207 5.06182 15.5221 5.17951 15.5231 5.29723C15.5523 5.30804 15.5815 5.31886 15.6116 5.33001C15.6504 5.34444 15.6893 5.35888 15.7281 5.37332C15.7473 5.38042 15.7665 5.38752 15.7863 5.39484C15.9085 5.4404 16.0268 5.48999 16.1431 5.5493C16.2076 5.56965 16.2343 5.56161 16.2979 5.53771C16.3622 5.48368 16.3622 5.48368 16.4264 5.41517C16.4508 5.3903 16.4752 5.36543 16.5003 5.33981C16.5258 5.31339 16.5513 5.28695 16.5768 5.26049C16.6267 5.2089 16.6768 5.15752 16.727 5.10622C16.7492 5.0833 16.7713 5.06038 16.7941 5.03677C16.8943 4.94396 16.985 4.88745 17.1213 4.87137C17.1424 4.86838 17.1635 4.86538 17.1852 4.86229C17.3725 4.88089 17.5139 5.00098 17.6414 5.13047C17.6566 5.14556 17.6719 5.16065 17.6877 5.1762C17.7376 5.22564 17.7871 5.27545 17.8366 5.3253C17.8714 5.36006 17.9062 5.39481 17.9411 5.42954C18.0139 5.50216 18.0865 5.57497 18.1589 5.64792C18.2516 5.74119 18.3447 5.83397 18.438 5.92661C18.5099 5.99819 18.5817 6.07002 18.6533 6.14193C18.6875 6.17624 18.7218 6.21047 18.7562 6.24461C18.8043 6.29243 18.8521 6.34058 18.8997 6.38883C18.9138 6.40273 18.9279 6.41663 18.9425 6.43095C19.06 6.55119 19.1206 6.66427 19.142 6.83197C19.1063 7.12218 18.8804 7.29144 18.6788 7.47928C18.6381 7.5174 18.598 7.55599 18.5578 7.59465C18.5337 7.61722 18.5096 7.63979 18.4848 7.66304C18.4283 7.72407 18.4283 7.72407 18.4383 7.79601C18.4462 7.81791 18.4541 7.83981 18.4623 7.86238C18.4696 7.88315 18.477 7.90392 18.4845 7.92533C18.4975 7.9571 18.4975 7.9571 18.5107 7.98951C18.5202 8.01282 18.5296 8.03614 18.5393 8.06017C18.5492 8.08418 18.559 8.10818 18.5692 8.13292C18.5887 8.18085 18.6082 8.2288 18.6276 8.27675C18.6406 8.30843 18.6406 8.30843 18.6538 8.34074C18.6716 8.38559 18.6875 8.43118 18.7028 8.47694C18.7327 8.47719 18.7626 8.47744 18.7934 8.4777C18.9049 8.47877 19.0163 8.48053 19.1278 8.48249C19.1759 8.48324 19.2241 8.48381 19.2722 8.48418C19.3416 8.48476 19.411 8.48601 19.4804 8.48738C19.5018 8.48741 19.5231 8.48745 19.5452 8.48748C19.6857 8.49112 19.7687 8.51533 19.8785 8.61054C19.9903 8.74566 20.0008 8.84437 19.9992 9.01218C19.9995 9.0478 19.9995 9.0478 19.9997 9.08413C20.0002 9.16231 19.9999 9.24046 19.9995 9.31863C19.9996 9.37313 19.9997 9.42764 19.9999 9.48214C20 9.59624 19.9998 9.71034 19.9993 9.82444C19.9987 9.97054 19.999 10.1166 19.9997 10.2627C20 10.3752 19.9999 10.4877 19.9996 10.6002C19.9996 10.6541 19.9997 10.708 19.9999 10.7618C20.0002 10.8372 19.9998 10.9125 19.9992 10.9878C19.9994 11.01 19.9996 11.0321 19.9998 11.055C19.9978 11.1967 19.9718 11.2767 19.8785 11.3895C19.7484 11.5023 19.6449 11.5124 19.4804 11.5126C19.4581 11.5131 19.4358 11.5135 19.4128 11.514C19.342 11.5152 19.2712 11.5158 19.2004 11.5164C19.1523 11.5171 19.1041 11.5179 19.0559 11.5188C18.9382 11.5207 18.8205 11.5221 18.7028 11.5231C18.692 11.5523 18.6811 11.5815 18.67 11.6116C18.6556 11.6504 18.6411 11.6893 18.6267 11.7281C18.6196 11.7473 18.6125 11.7665 18.6052 11.7863C18.5596 11.9085 18.51 12.0268 18.4507 12.1431C18.4304 12.2076 18.4384 12.2344 18.4623 12.2979C18.5159 12.3609 18.5159 12.3609 18.5839 12.4236C18.6086 12.4476 18.6334 12.4716 18.6589 12.4964C18.6982 12.534 18.7376 12.5716 18.7771 12.6091C19.1093 12.9257 19.1093 12.9257 19.1437 13.1664C19.1154 13.3639 19.0085 13.5045 18.8695 13.6414C18.8544 13.6566 18.8393 13.6719 18.8238 13.6877C18.7744 13.7376 18.7245 13.7871 18.6747 13.8366C18.6399 13.8714 18.6052 13.9062 18.5705 13.9411C18.4978 14.0139 18.425 14.0865 18.3521 14.1589C18.2588 14.2516 18.166 14.3447 18.0734 14.438C18.0018 14.5099 17.93 14.5817 17.8581 14.6533C17.8238 14.6875 17.7895 14.7218 17.7554 14.7562C17.7076 14.8043 17.6594 14.8521 17.6112 14.8997C17.5973 14.9138 17.5834 14.9279 17.569 14.9425C17.4584 15.0506 17.3467 15.1207 17.1907 15.1379C17.17 15.136 17.1493 15.134 17.1279 15.132C17.1073 15.1306 17.0867 15.1293 17.0654 15.1279C16.8133 15.0436 16.6284 14.7938 16.453 14.6059C16.4315 14.5836 16.41 14.5613 16.3878 14.5384C16.3686 14.518 16.3494 14.4976 16.3296 14.4766C16.2741 14.4285 16.2741 14.4285 16.2051 14.4395C16.1394 14.4617 16.0747 14.4845 16.0105 14.5107C15.9755 14.5249 15.9755 14.5249 15.9398 14.5393C15.9158 14.5492 15.8918 14.559 15.8671 14.5692C15.8191 14.5887 15.7712 14.6082 15.7233 14.6276C15.7021 14.6363 15.681 14.6449 15.6593 14.6538C15.6144 14.6716 15.5688 14.6875 15.5231 14.7028C15.5227 14.7477 15.5227 14.7477 15.5223 14.7934C15.5212 14.9049 15.5195 15.0163 15.5175 15.1278C15.5168 15.1759 15.5162 15.2241 15.5158 15.2722C15.5152 15.3416 15.514 15.411 15.5126 15.4804C15.5126 15.5018 15.5126 15.5231 15.5125 15.5452C15.5089 15.6857 15.4847 15.7687 15.3895 15.8785C15.2543 15.9903 15.1556 16.0008 14.9878 15.9992C14.9522 15.9995 14.9522 15.9995 14.9159 15.9997C14.8377 16.0002 14.7595 15.9999 14.6814 15.9995C14.6269 15.9996 14.5724 15.9997 14.5179 15.9999C14.4038 16 14.2897 15.9998 14.1756 15.9993C14.0295 15.9987 13.8834 15.999 13.7373 15.9997C13.6248 16 13.5123 15.9999 13.3998 15.9997C13.3459 15.9996 13.292 15.9997 13.2382 15.9999C13.1628 16.0002 13.0875 15.9998 13.0122 15.9992C12.9789 15.9995 12.9789 15.9995 12.945 15.9998C12.8033 15.9978 12.7233 15.9718 12.6105 15.8785C12.4977 15.7484 12.4876 15.6449 12.4874 15.4804C12.4869 15.4581 12.4865 15.4358 12.486 15.4128C12.4848 15.342 12.4842 15.2712 12.4836 15.2004C12.4829 15.1523 12.4821 15.1041 12.4812 15.0559C12.4793 14.9382 12.4779 14.8205 12.4769 14.7028C12.4477 14.692 12.4185 14.6811 12.3884 14.67C12.3496 14.6556 12.3107 14.6411 12.2719 14.6267C12.2527 14.6196 12.2335 14.6125 12.2137 14.6052C12.0915 14.5596 11.9732 14.51 11.8569 14.4507C11.7924 14.4304 11.7657 14.4384 11.7021 14.4623C11.6378 14.5163 11.6378 14.5163 11.5736 14.5848C11.5492 14.6097 11.5248 14.6346 11.4997 14.6602C11.4742 14.6866 11.4487 14.7131 11.4232 14.7395C11.3733 14.7911 11.3232 14.8425 11.273 14.8938C11.2508 14.9167 11.2287 14.9396 11.2059 14.9632C11.1057 15.056 11.015 15.1126 10.8787 15.1286C10.8576 15.1316 10.8365 15.1346 10.8148 15.1377C10.6275 15.1191 10.4861 14.999 10.3586 14.8695C10.3434 14.8544 10.3281 14.8393 10.3123 14.8238C10.2624 14.7744 10.2129 14.7245 10.1634 14.6747C10.1286 14.6399 10.0938 14.6052 10.0589 14.5705C9.98612 14.4978 9.91354 14.425 9.84109 14.3521C9.74843 14.2588 9.6553 14.166 9.56202 14.0734C9.49005 14.0018 9.41834 13.93 9.34671 13.8581C9.31247 13.8238 9.27816 13.7895 9.24377 13.7554C9.19568 13.7076 9.14794 13.6594 9.10029 13.6112C9.08617 13.5973 9.07205 13.5834 9.05751 13.569C8.93998 13.4488 8.87936 13.3357 8.85801 13.168C8.89365 12.8778 9.11958 12.7086 9.32116 12.5207C9.36185 12.4826 9.40204 12.444 9.44221 12.4053C9.46629 12.3828 9.49038 12.3602 9.5152 12.337C9.5717 12.2759 9.5717 12.2759 9.56174 12.204C9.55381 12.1821 9.54588 12.1602 9.53771 12.1376C9.53037 12.1168 9.52304 12.0961 9.51548 12.0747C9.50251 12.0429 9.50251 12.0429 9.48928 12.0105C9.47512 11.9755 9.47512 11.9755 9.46068 11.9398C9.45083 11.9158 9.44098 11.8918 9.43083 11.8671C9.41133 11.8191 9.39184 11.7712 9.37238 11.7233C9.35941 11.6916 9.35941 11.6916 9.34618 11.6593C9.32839 11.6144 9.31248 11.5688 9.29723 11.5231C9.26731 11.5228 9.23739 11.5226 9.20656 11.5223C9.0951 11.5212 8.98367 11.5195 8.87222 11.5175C8.82407 11.5168 8.77592 11.5162 8.72776 11.5158C8.65837 11.5152 8.58901 11.514 8.51962 11.5126C8.49824 11.5126 8.47686 11.5126 8.45483 11.5125C8.31432 11.5089 8.23129 11.4847 8.12153 11.3895C8.00974 11.2543 7.99918 11.1556 8.00082 10.9878C8.00064 10.9641 8.00045 10.9403 8.00026 10.9159C7.99979 10.8377 8.0001 10.7595 8.00046 10.6814C8.00039 10.6269 8.00028 10.5724 8.00015 10.5179C7.99999 10.4038 8.00022 10.2897 8.00072 10.1756C8.00133 10.0295 8.00098 9.88338 8.00034 9.73728C7.99995 9.62477 8.00007 9.51227 8.00035 9.39977C8.00042 9.3459 8.00033 9.29204 8.00009 9.23818C7.99981 9.16283 8.00023 9.08752 8.00082 9.01218C8.00061 8.99003 8.00039 8.96787 8.00017 8.94504C8.00223 8.8033 8.02823 8.72332 8.12153 8.61054C8.25157 8.49774 8.35508 8.48763 8.51962 8.48738C8.54193 8.48694 8.56425 8.4865 8.58723 8.48604C8.65801 8.48475 8.72877 8.48418 8.79956 8.48362C8.84775 8.48287 8.89594 8.48207 8.94412 8.48122C9.06182 8.47925 9.17951 8.47793 9.29723 8.47694C9.30804 8.44771 9.31886 8.41847 9.33001 8.38835C9.34444 8.34955 9.35888 8.31075 9.37332 8.27195C9.38042 8.25273 9.38752 8.23352 9.39484 8.21372C9.4404 8.09152 9.48999 7.97324 9.5493 7.85695C9.56963 7.79244 9.56159 7.76559 9.53771 7.70205C9.48411 7.63912 9.48411 7.63912 9.41611 7.57639C9.39136 7.55238 9.36662 7.52837 9.34112 7.50363C9.3018 7.46597 9.2624 7.4284 9.22292 7.39092C8.89072 7.07432 8.89072 7.07432 8.85634 6.83364C8.88456 6.63613 8.99146 6.49552 9.13047 6.35865C9.14556 6.34337 9.16065 6.32809 9.1762 6.31235C9.22564 6.26244 9.27545 6.21294 9.3253 6.16344C9.36006 6.12861 9.39481 6.09376 9.42954 6.0589C9.50216 5.98612 9.57497 5.91354 9.64792 5.84109C9.74119 5.74843 9.83397 5.6553 9.92661 5.56202C9.99819 5.49005 10.07 5.41834 10.1419 5.34671C10.1762 5.31247 10.2105 5.27816 10.2446 5.24377C10.2924 5.19568 10.3406 5.14794 10.3888 5.10029C10.4027 5.08617 10.4166 5.07205 10.4309 5.05751C10.5416 4.94938 10.6533 4.87926 10.8093 4.86208C10.83 4.86405 10.8507 4.86601 10.8721 4.86803C10.903 4.87005 10.903 4.87005 10.9346 4.8721C11.1867 4.9564 11.3716 5.20623 11.547 5.39414C11.5793 5.42754 11.5793 5.42754 11.6122 5.46162C11.6314 5.48201 11.6506 5.5024 11.6704 5.5234C11.7259 5.57148 11.7259 5.57148 11.7949 5.56052C11.8606 5.5383 11.9253 5.5155 11.9895 5.48928C12.0128 5.47984 12.0361 5.4704 12.0602 5.46068C12.0842 5.45083 12.1082 5.44098 12.1329 5.43083C12.1809 5.41133 12.2288 5.39184 12.2767 5.37238C12.2979 5.36373 12.319 5.35509 12.3407 5.34618C12.3856 5.32839 12.4312 5.31248 12.4769 5.29723C12.4773 5.25235 12.4773 5.25235 12.4777 5.20656C12.4788 5.0951 12.4805 4.98367 12.4825 4.87222C12.4832 4.82407 12.4838 4.77592 12.4842 4.72776C12.4848 4.65837 12.486 4.58901 12.4874 4.51962C12.4874 4.49824 12.4874 4.47686 12.4875 4.45483C12.4911 4.31432 12.5153 4.23129 12.6105 4.12153C12.7457 4.00974 12.8444 3.99918 13.0122 4.00082Z" fill="#FF8F00"/>
<path d="M15.1757 6.39564C15.578 6.7361 15.8653 7.18565 15.9112 7.71917C15.9158 7.97432 15.9011 8.20123 15.8204 8.44324C15.8103 8.47421 15.8003 8.50519 15.7899 8.53711C15.6369 8.96583 15.3251 9.34356 14.925 9.56567C14.7302 9.65695 14.5352 9.72937 14.3263 9.78044C14.3522 9.78293 14.378 9.78541 14.4046 9.78797C15.2373 9.89518 15.95 10.3236 16.4889 10.9603C16.5922 11.0992 16.6808 11.2414 16.7641 11.393C16.7835 11.4275 16.8029 11.4621 16.8229 11.4977C16.9236 11.6866 16.9924 11.8436 17 12.0616C16.9389 12.1779 16.9389 12.1779 16.8476 12.2902C16.8316 12.3102 16.8156 12.3303 16.7991 12.351C16.6626 12.5199 16.5177 12.6817 16.3704 12.8412C16.3077 12.9099 16.249 12.9792 16.1915 13.0522C15.6959 13.6242 14.735 14.3792 13.9724 14.5C13.8708 14.459 13.7788 14.4161 13.6825 14.3648C13.6546 14.3503 13.6268 14.3359 13.5982 14.321C13.5129 14.2763 13.4281 14.2309 13.3433 14.1854C13.3188 14.1725 13.2943 14.1596 13.2691 14.1464C12.7371 13.8663 12.286 13.4948 11.8492 13.0841C11.8241 13.0616 11.799 13.039 11.7732 13.0158C11.5826 12.837 11.4209 12.6351 11.2594 12.4303C11.2363 12.4016 11.2131 12.3729 11.1893 12.3434C11.0956 12.2219 11.0299 12.1335 11 11.9815C11.0314 11.8259 11.0903 11.6978 11.1636 11.5577C11.1778 11.5299 11.1919 11.5022 11.2065 11.4736C11.3204 11.2568 11.4529 11.0669 11.6133 10.8817C11.6379 10.8496 11.6626 10.8176 11.6879 10.7846C12.1116 10.2742 12.8344 9.87454 13.5011 9.80794C13.5989 9.80748 13.5989 9.80748 13.7365 9.81977C13.7365 9.79382 13.7365 9.76786 13.7365 9.74111C13.6647 9.7399 13.6647 9.7399 13.5915 9.73866C13.1915 9.69211 12.8383 9.43912 12.5686 9.15178C12.1926 8.65792 12.0792 8.15679 12.1244 7.53866C12.2384 7.02726 12.5572 6.56287 12.9954 6.27826C13.7023 5.87896 14.5129 5.90193 15.1757 6.39564Z" fill="#FFF2CD"/>
<defs>
<filter id="filter0_d_451_1298" x="-0.0098877" y="-0.00976562" width="24.0198" height="24.021" filterUnits="userSpaceOnUse" color-interpolation-filters="sRGB">
<feFlood flood-opacity="0" result="BackgroundImageFix"/>
<feColorMatrix in="SourceAlpha" type="matrix" values="0 0 0 0 0 0 0 0 0 0 0 0 0 0 0 0 0 0 127 0" result="hardAlpha"/>
<feOffset dx="-2" dy="2"/>
<feGaussianBlur stdDeviation="2"/>
<feComposite in2="hardAlpha" operator="out"/>
<feColorMatrix type="matrix" values="0 0 0 0 0.310052 0 0 0 0 0.310052 0 0 0 0 0.310052 0 0 0 0.25 0"/>
<feBlend mode="normal" in2="BackgroundImageFix" result="effect1_dropShadow_451_1298"/>
<feBlend mode="normal" in="SourceGraphic" in2="effect1_dropShadow_451_1298" result="shape"/>
</filter>
</defs>
</svg>
