<svg width="30" height="110" viewBox="0 0 30 110" fill="none" xmlns="http://www.w3.org/2000/svg">
<path fill-rule="evenodd" clip-rule="evenodd" d="M13.5 3C8.80558 3 5 6.77963 5 11.442V16.408C5 21.0704 8.80558 24.85 13.5 24.85C18.1944 24.85 22 21.0704 22 16.408V11.442C22 6.77963 18.1944 3 13.5 3ZM21 16.408V11.442C21 7.49502 17.909 4.26501 14 4.00947V6.53872C14.8626 6.75922 15.5 7.53693 15.5 8.4625V10.4489C15.5 11.5459 14.6046 12.4352 13.5 12.4352C12.3954 12.4352 11.5 11.5459 11.5 10.4489V8.4625C11.5 7.53693 12.1374 6.75922 13 6.53872V4.00947C9.09098 4.26501 6 7.49502 6 11.442V16.408C6 20.5218 9.35786 23.8568 13.5 23.8568C17.6421 23.8568 21 20.5218 21 16.408ZM14.5 8.4625V10.4489C14.5 10.9974 14.0523 11.442 13.5 11.442C12.9477 11.442 12.5 10.9974 12.5 10.4489V8.4625C12.5 7.91398 12.9477 7.46932 13.5 7.46932C14.0523 7.46932 14.5 7.91398 14.5 8.4625Z" fill="white"/>
<path d="M14 37.2648C14.2761 37.2648 14.5 37.4871 14.5 37.7614V40.534C14.5 40.8083 14.2761 41.0306 14 41.0306C13.7239 41.0306 13.5 40.8083 13.5 40.534V37.7614C13.5 37.4871 13.7239 37.2648 14 37.2648Z" fill="white"/>
<path d="M14.5 46.0793C14.5 45.805 14.2761 45.5827 14 45.5827C13.7239 45.5827 13.5 45.805 13.5 46.0793L13.5 51.6245C13.5 51.8988 13.7239 52.1211 14 52.1211C14.2761 52.1211 14.5 51.8988 14.5 51.6245L14.5 46.0793Z" fill="white"/>
<path d="M14 56.6732C14.2761 56.6732 14.5 56.8955 14.5 57.1698V62.7151C14.5 62.9893 14.2761 63.2116 14 63.2116C13.7239 63.2116 13.5 62.9893 13.5 62.715V57.1698C13.5 56.8955 13.7239 56.6732 14 56.6732Z" fill="white"/>
<path d="M14.5 68.2603C14.5 67.9861 14.2761 67.7637 14 67.7637C13.7239 67.7637 13.5 67.9861 13.5 68.2603L13.5 73.8056C13.5 74.0798 13.7239 74.3022 14 74.3022C14.2761 74.3022 14.5 74.0798 14.5 73.8056L14.5 68.2603Z" fill="white"/>
<path d="M14 78.8543C14.2761 78.8543 14.5 79.0766 14.5 79.3508V84.8961C14.5 85.1704 14.2761 85.3927 14 85.3927C13.7239 85.3927 13.5 85.1704 13.5 84.8961V79.3508C13.5 79.0766 13.7239 78.8543 14 78.8543Z" fill="white"/>
<path d="M14.5 90.4414C14.5 90.1671 14.2761 89.9448 14 89.9448C13.7239 89.9448 13.5 90.1671 13.5 90.4414L13.5 95.9866C13.5 96.2609 13.7239 96.4832 14 96.4832C14.2761 96.4832 14.5 96.2609 14.5 95.9866L14.5 90.4414Z" fill="white"/>
<path d="M14 101.035C14.2761 101.035 14.5 101.258 14.5 101.532V104.099L16.6464 101.967C16.8417 101.773 17.1583 101.773 17.3536 101.967C17.5488 102.161 17.5488 102.475 17.3536 102.669L14 106L10.6464 102.669C10.4512 102.475 10.4512 102.161 10.6464 101.967C10.8417 101.773 11.1583 101.773 11.3536 101.967L13.5 104.099V101.532C13.5 101.258 13.7239 101.035 14 101.035Z" fill="white"/>
</svg>
