<svg width="24" height="24" viewBox="0 0 24 24" fill="none" xmlns="http://www.w3.org/2000/svg">
<g clip-path="url(#clip0_674_1687)">
<circle cx="12" cy="12" r="12" fill="#F0F7FF"/>
<path d="M13.2727 7.33398C13.2727 7.68729 13.1416 8.00861 12.9272 8.24726L14.5971 10.4338C14.6198 10.4636 14.6515 10.4844 14.6871 10.4927C14.7226 10.5009 14.7598 10.4961 14.7924 10.4791L16.4789 9.59518C16.4424 9.40177 16.4473 9.20232 16.4932 9.01112C16.539 8.81992 16.6247 8.64172 16.744 8.4893C16.8634 8.33688 17.0134 8.21402 17.1835 8.12952C17.3535 8.04503 17.5393 8.00101 17.7275 8.00061C18.0404 8.00067 18.3423 8.12147 18.5756 8.33994C18.8088 8.5584 18.9571 8.85922 18.992 9.18493C19.027 9.51065 18.9462 9.83844 18.765 10.1057C18.5839 10.373 18.3151 10.5609 18.01 10.6338L16.862 17.0487C16.814 17.3161 16.6784 17.5575 16.4785 17.7312C16.2786 17.9049 16.0271 18 15.7674 18H8.2325C7.97279 18 7.72124 17.9049 7.52136 17.7312C7.32148 17.5575 7.18584 17.3161 7.13791 17.0487L5.98985 10.6338C5.74587 10.5755 5.52369 10.4432 5.35111 10.2534C5.17853 10.0635 5.06319 9.82464 5.01953 9.56653C4.97586 9.30841 5.0058 9.04254 5.10561 8.80215C5.20541 8.56177 5.37065 8.35753 5.58066 8.21499C5.79068 8.07244 6.03614 7.99791 6.28638 8.00071C6.53661 8.00351 6.7805 8.08352 6.98756 8.23073C7.19462 8.37794 7.35566 8.58582 7.45054 8.82839C7.54542 9.07095 7.56993 9.33743 7.52101 9.59451L9.20745 10.4785C9.24005 10.4955 9.27724 10.5002 9.3128 10.492C9.34835 10.4837 9.38013 10.463 9.40283 10.4331L11.0727 8.24659C10.9304 8.0881 10.8274 7.89556 10.7724 7.68574C10.7175 7.47593 10.7125 7.25523 10.7577 7.0429C10.8029 6.83057 10.8971 6.63306 11.0319 6.4676C11.1668 6.30214 11.3382 6.17376 11.5313 6.09366C11.7244 6.01356 11.9333 5.98417 12.1397 6.00806C12.3461 6.03196 12.5439 6.1084 12.7156 6.23072C12.8874 6.35305 13.0279 6.51754 13.125 6.70985C13.2221 6.90215 13.2728 7.11643 13.2727 7.33398ZM11.9999 15.3335C12.3375 15.3335 12.6612 15.193 12.8999 14.943C13.1386 14.693 13.2727 14.3538 13.2727 14.0002C13.2727 13.6466 13.1386 13.3075 12.8999 13.0575C12.6612 12.8075 12.3375 12.667 11.9999 12.667C11.6624 12.667 11.3386 12.8075 11.0999 13.0575C10.8613 13.3075 10.7272 13.6466 10.7272 14.0002C10.7272 14.3538 10.8613 14.693 11.0999 14.943C11.3386 15.193 11.6624 15.3335 11.9999 15.3335Z" fill="#637593"/>
</g>
<defs>
<clipPath id="clip0_674_1687">
<rect width="24" height="24" fill="white"/>
</clipPath>
</defs>
</svg>
