<svg width="40" height="40" viewBox="0 0 40 40" fill="none" xmlns="http://www.w3.org/2000/svg">
<circle cx="20" cy="20" r="20" fill="#F0F7FF"/>
<g clip-path="url(#clip0_461_370)">
<path d="M20.0176 7.98529C20.0547 7.98354 20.0918 7.98179 20.13 7.97998C20.2344 7.99994 20.2344 7.99994 20.3177 8.07776C20.3886 8.21349 20.3892 8.30468 20.3838 8.45697C20.3825 8.50313 20.3813 8.5493 20.38 8.59686C20.3775 8.64943 20.3775 8.64943 20.375 8.70306C20.749 8.66223 21.1074 8.60741 21.4707 8.5097C21.926 8.38984 22.1667 8.39059 22.625 8.56244C22.625 9.0265 22.625 9.49056 22.625 9.96869C22.4703 9.93775 22.3156 9.90681 22.1563 9.87494C21.7998 9.86031 21.4652 9.96413 21.1281 10.0699C20.8818 10.1341 20.6274 10.1166 20.375 10.1093C20.2511 10.9876 20.2511 10.9876 20.5227 11.7965C20.7894 12.0375 21.1029 12.2044 21.4189 12.372C21.8312 12.5924 22.2105 12.8616 22.5949 13.1267C22.7925 13.2625 22.9915 13.3964 23.1904 13.5303C23.2244 13.5532 23.2583 13.5761 23.2933 13.5997C23.3613 13.6456 23.4297 13.6911 23.4983 13.7361C23.5791 13.7916 23.6575 13.8508 23.7343 13.912C24.1222 14.2066 24.4515 14.2384 24.9212 14.2277C24.992 14.2276 25.0628 14.2277 25.1336 14.2279C25.3184 14.2282 25.5032 14.2264 25.688 14.224C25.9843 14.2203 26.2806 14.2192 26.5769 14.2193C26.6797 14.2189 26.7823 14.2173 26.8851 14.2155C27.2332 14.2123 27.4855 14.2278 27.7813 14.4218C27.8146 14.4434 27.8479 14.465 27.8823 14.4873C27.9075 14.5069 27.9328 14.5265 27.9589 14.5467C27.9881 14.569 28.0173 14.5914 28.0475 14.6144C28.0776 14.6379 28.1077 14.6613 28.1387 14.6855C28.2048 14.736 28.271 14.7865 28.3372 14.8369C28.3699 14.8619 28.4026 14.8869 28.4363 14.9126C28.5736 15.0163 28.7132 15.1163 28.8535 15.2158C28.9069 15.2537 28.9603 15.2916 29.0137 15.3295C29.0552 15.3589 29.0552 15.3589 29.0975 15.3889C29.2346 15.4866 29.3711 15.5851 29.5076 15.6838C29.5811 15.7368 29.6548 15.7896 29.7287 15.842C29.881 15.9505 30.0258 16.0576 30.1649 16.1829C30.485 16.4664 30.7777 16.477 31.191 16.4662C31.2322 16.4656 31.2733 16.465 31.3157 16.4644C31.3527 16.4627 31.3897 16.4611 31.4278 16.4594C31.5313 16.4843 31.5313 16.4843 31.6369 16.5807C31.7361 16.748 31.7459 16.8826 31.7437 17.0717C31.7438 17.1052 31.744 17.1386 31.7442 17.1731C31.7443 17.2435 31.744 17.314 31.7432 17.3844C31.7422 17.4918 31.7432 17.5991 31.7444 17.7065C31.7443 17.7752 31.744 17.8439 31.7437 17.9125C31.744 17.9444 31.7444 17.9763 31.7448 18.0092C31.7418 18.1651 31.7193 18.2646 31.644 18.4019C31.4998 18.5273 31.3897 18.5262 31.2031 18.5468C31.2032 18.5746 31.2033 18.6024 31.2034 18.631C31.2075 20.277 31.2108 21.9229 31.2127 23.5689C31.2129 23.7665 31.2132 23.964 31.2134 24.1616C31.2135 24.2009 31.2135 24.2402 31.2136 24.2808C31.2144 24.9179 31.2159 25.5551 31.2176 26.1922C31.2194 26.8458 31.2204 27.4994 31.2208 28.153C31.221 28.5564 31.2218 28.9598 31.2234 29.3632C31.2244 29.6397 31.2247 29.9162 31.2244 30.1927C31.2243 30.3524 31.2245 30.512 31.2255 30.6716C31.2264 30.8445 31.2262 31.0175 31.2257 31.1904C31.2262 31.241 31.2268 31.2916 31.2273 31.3437C31.2246 31.6833 31.2246 31.6833 31.1138 31.866C30.9393 32.0208 30.7931 32.0067 30.5699 32.0064C30.5145 32.0065 30.5145 32.0065 30.458 32.0067C30.333 32.0071 30.2079 32.0071 30.0829 32.0072C29.9929 32.0073 29.9029 32.0075 29.8129 32.0078C29.5645 32.0083 29.3161 32.0086 29.0677 32.0088C28.8002 32.0091 28.5327 32.0096 28.2653 32.0101C27.6188 32.0113 26.9724 32.012 26.3259 32.0126C26.1434 32.0128 25.961 32.0129 25.7785 32.0131C24.6464 32.0143 23.5142 32.0154 22.3821 32.0159C22.1198 32.0161 21.8574 32.0162 21.595 32.0163C21.5624 32.0164 21.5298 32.0164 21.4963 32.0164C20.4391 32.017 19.3819 32.0184 18.3247 32.0204C17.2075 32.0224 16.0903 32.0236 14.9731 32.0239C14.3638 32.0241 13.7546 32.0246 13.1454 32.0262C12.6267 32.0275 12.1081 32.028 11.5894 32.0275C11.3246 32.0272 11.0598 32.0274 10.795 32.0285C10.5528 32.0296 10.3106 32.0295 10.0683 32.0286C9.98052 32.0285 9.8927 32.0288 9.80488 32.0295C9.68584 32.0304 9.56689 32.0298 9.44785 32.0289C9.39625 32.0298 9.39625 32.0298 9.3436 32.0307C9.16181 32.0277 9.08439 32.005 8.94077 31.8897C8.81111 31.7238 8.79102 31.6077 8.79112 31.4034C8.79098 31.3346 8.79098 31.3346 8.79083 31.2645C8.79097 31.214 8.79111 31.1635 8.79125 31.1115C8.79121 31.058 8.79117 31.0045 8.79113 30.9493C8.79106 30.8005 8.79121 30.6517 8.79144 30.503C8.79165 30.3426 8.79158 30.1822 8.79154 30.0218C8.79152 29.7439 8.79166 29.466 8.79193 29.1881C8.79231 28.7862 8.79243 28.3844 8.79249 27.9825C8.79259 27.3306 8.7929 26.6787 8.79335 26.0268C8.79378 25.3934 8.79411 24.76 8.79431 24.1267C8.79432 24.0876 8.79433 24.0486 8.79435 24.0084C8.79441 23.8126 8.79447 23.6168 8.79452 23.421C8.79501 21.7963 8.79584 20.1716 8.79688 18.5468C8.73692 18.5401 8.67695 18.5334 8.61516 18.5265C8.50176 18.5138 8.43054 18.5046 8.3294 18.4502C8.25074 18.3017 8.2603 18.1471 8.26093 17.983C8.26069 17.9462 8.26044 17.9094 8.26019 17.8715C8.25989 17.7937 8.25995 17.7158 8.26035 17.638C8.26075 17.5191 8.2594 17.4002 8.25791 17.2813C8.25784 17.2056 8.25786 17.13 8.258 17.0543C8.25748 17.0188 8.25695 16.9833 8.25641 16.9467C8.25854 16.785 8.26954 16.6885 8.36361 16.5547C8.48337 16.4745 8.53263 16.4651 8.67439 16.4755C9.31863 16.4989 9.65832 16.3688 10.1484 15.9584C10.3276 15.8112 10.5166 15.6773 10.7041 15.541C10.7792 15.4855 10.8542 15.4301 10.9291 15.3745C11.1903 15.1817 11.4537 14.9921 11.719 14.8049C11.7728 14.767 11.8265 14.7289 11.8801 14.6907C11.9625 14.6321 12.0452 14.5738 12.1279 14.5156C12.1759 14.4817 12.2238 14.4479 12.2731 14.413C12.5057 14.2646 12.6752 14.2229 12.9515 14.2283C13.0143 14.2292 13.0771 14.2301 13.1399 14.231C13.1895 14.2319 13.1895 14.2319 13.2401 14.2329C13.4174 14.236 13.5947 14.2362 13.772 14.2369C13.9967 14.238 14.2213 14.2399 14.4459 14.2448C15.5608 14.291 15.5608 14.291 16.5115 13.7758C16.5381 13.7501 16.5648 13.7245 16.5922 13.6981C16.7192 13.5815 16.8613 13.492 17.0062 13.3995C17.0603 13.3638 17.1144 13.3279 17.1683 13.292C17.2235 13.2555 17.2788 13.219 17.334 13.1826C17.455 13.1024 17.576 13.0221 17.6969 12.9418C17.7277 12.9213 17.7585 12.9009 17.7902 12.8798C18.0241 12.7242 18.2566 12.5666 18.4887 12.4082C18.5222 12.3854 18.5556 12.3625 18.5902 12.339C18.7529 12.2281 18.9154 12.117 19.0777 12.0055C19.1364 11.9655 19.195 11.9254 19.2537 11.8854C19.2805 11.8669 19.3073 11.8483 19.335 11.8292C19.5206 11.7031 19.5206 11.7031 19.625 11.7031C19.6245 11.6395 19.6245 11.6395 19.6241 11.5747C19.6212 11.1754 19.6191 10.7761 19.6177 10.3767C19.617 10.1714 19.616 9.96615 19.6144 9.76085C19.6129 9.56269 19.612 9.36453 19.6117 9.16636C19.6114 9.0908 19.6109 9.01524 19.6101 8.93969C19.6091 8.83375 19.609 8.72785 19.609 8.62191C19.6086 8.53151 19.6086 8.53151 19.6081 8.43928C19.6386 8.15412 19.7337 7.99402 20.0176 7.98529Z" fill="#FCECD2"/>
<path d="M20.0176 7.98529C20.0547 7.98354 20.0918 7.98179 20.13 7.97998C20.2344 7.99994 20.2344 7.99994 20.3177 8.07776C20.3886 8.21349 20.3892 8.30468 20.3838 8.45697C20.3825 8.50313 20.3812 8.5493 20.3799 8.59686C20.3775 8.64943 20.3775 8.64943 20.375 8.70306C20.749 8.66223 21.1074 8.60741 21.4707 8.5097C21.926 8.38984 22.1667 8.39059 22.625 8.56244C22.625 9.0265 22.625 9.49056 22.625 9.96869C22.4703 9.93775 22.3156 9.90681 22.1562 9.87494C21.7998 9.86031 21.4651 9.96413 21.1281 10.0699C20.8818 10.1341 20.6274 10.1166 20.375 10.1093C20.2511 10.9876 20.2511 10.9876 20.5227 11.7965C20.7894 12.0375 21.1029 12.2044 21.4189 12.372C21.8311 12.5924 22.2105 12.8616 22.5948 13.1267C22.7925 13.2625 22.9914 13.3964 23.1904 13.5303C23.2244 13.5532 23.2583 13.5761 23.2933 13.5997C23.3613 13.6456 23.4296 13.6911 23.4982 13.7361C23.5791 13.7916 23.6575 13.8508 23.7342 13.912C24.1222 14.2066 24.4514 14.2384 24.9211 14.2277C24.9919 14.2276 25.0628 14.2277 25.1336 14.2279C25.3184 14.2282 25.5031 14.2264 25.688 14.224C25.9843 14.2203 26.2806 14.2192 26.5769 14.2193C26.6796 14.2189 26.7823 14.2173 26.885 14.2155C27.2332 14.2123 27.4855 14.2278 27.7812 14.4218C27.8146 14.4434 27.8479 14.465 27.8822 14.4873C27.9075 14.5069 27.9328 14.5265 27.9588 14.5467C27.9881 14.569 28.0173 14.5914 28.0474 14.6144C28.0775 14.6379 28.1076 14.6613 28.1387 14.6855C28.2048 14.736 28.2709 14.7865 28.3371 14.8369C28.3699 14.8619 28.4026 14.8869 28.4363 14.9126C28.5735 15.0163 28.7132 15.1163 28.8535 15.2158C28.9069 15.2537 28.9603 15.2916 29.0137 15.3295C29.0552 15.3589 29.0552 15.3589 29.0975 15.3889C29.2346 15.4866 29.3711 15.5851 29.5075 15.6838C29.581 15.7368 29.6547 15.7896 29.7287 15.842C29.881 15.9505 30.0258 16.0576 30.1649 16.1829C30.4849 16.4664 30.7777 16.477 31.191 16.4662C31.2321 16.4656 31.2733 16.465 31.3157 16.4644C31.3527 16.4627 31.3897 16.4611 31.4278 16.4594C31.5312 16.4843 31.5312 16.4843 31.6369 16.5807C31.7361 16.748 31.7459 16.8826 31.7436 17.0717C31.7438 17.1052 31.744 17.1386 31.7442 17.1731C31.7443 17.2435 31.744 17.314 31.7432 17.3844C31.7422 17.4918 31.7432 17.5991 31.7444 17.7065C31.7442 17.7752 31.744 17.8439 31.7436 17.9125C31.744 17.9444 31.7444 17.9763 31.7448 18.0092C31.7417 18.1651 31.7192 18.2646 31.6439 18.4019C31.4009 18.6133 31.0071 18.5519 30.7011 18.5478C30.6517 18.5474 30.6023 18.5469 30.5514 18.5465C30.3888 18.5449 30.2262 18.543 30.0636 18.5411C29.9506 18.54 29.8376 18.5389 29.7245 18.5378C29.4276 18.5348 29.1307 18.5316 28.8338 18.5283C28.5306 18.525 28.2274 18.5219 27.9241 18.5189C27.3296 18.5129 26.7351 18.5065 26.1406 18.4999C26.1413 18.5546 26.1421 18.6092 26.1428 18.6655C26.1454 18.8681 26.147 19.0707 26.1483 19.2733C26.149 19.361 26.15 19.4487 26.1512 19.5364C26.1529 19.6624 26.1537 19.7884 26.1543 19.9144C26.1551 19.9537 26.1558 19.993 26.1565 20.0334C26.1566 20.306 26.1566 20.306 26.0821 20.4087C25.979 20.484 25.9226 20.4863 25.7957 20.4865C25.7537 20.4869 25.7117 20.4873 25.6684 20.4877C25.6222 20.4874 25.576 20.4872 25.5285 20.4869C25.4549 20.4872 25.4549 20.4872 25.3799 20.4876C25.2148 20.4883 25.0498 20.488 24.8847 20.4876C24.7667 20.4879 24.6487 20.4882 24.5306 20.4886C24.2429 20.4894 23.9551 20.4894 23.6674 20.4892C23.4336 20.489 23.1997 20.4891 22.9659 20.4893C22.9161 20.4894 22.9161 20.4894 22.8652 20.4894C22.7977 20.4895 22.7301 20.4896 22.6626 20.4897C22.029 20.4903 21.3954 20.49 20.7618 20.4895C20.1817 20.489 19.6016 20.4896 19.0216 20.4908C18.4263 20.4919 17.8311 20.4924 17.2359 20.492C16.9016 20.4919 16.5672 20.492 16.2329 20.4928C15.9186 20.4936 15.6044 20.4934 15.2901 20.4925C15.1745 20.4923 15.059 20.4924 14.9434 20.4929C14.7861 20.4935 14.6288 20.493 14.4715 20.4922C14.4253 20.4926 14.3791 20.4931 14.3316 20.4935C14.2896 20.4931 14.2476 20.4926 14.2043 20.4922C14.168 20.4921 14.1317 20.4921 14.0942 20.4921C14 20.4687 14 20.4687 13.9179 20.385C13.8261 20.2223 13.8422 20.0549 13.8456 19.8732C13.8458 19.834 13.846 19.7947 13.8462 19.7542C13.847 19.6291 13.8488 19.504 13.8506 19.3788C13.8513 19.2939 13.8519 19.2089 13.8525 19.124C13.854 18.9159 13.8565 18.7079 13.8594 18.4999C13.8323 18.5003 13.8052 18.5007 13.7773 18.5011C13.1181 18.51 12.4589 18.5182 11.7996 18.5256C11.4808 18.5291 11.162 18.5329 10.8432 18.5374C10.5357 18.5417 10.2281 18.5452 9.9205 18.5483C9.80307 18.5496 9.68565 18.5512 9.56822 18.553C9.40393 18.5555 9.23964 18.5571 9.07533 18.5585C9.0023 18.5599 9.0023 18.5599 8.92779 18.5613C8.51875 18.5632 8.51875 18.5632 8.32811 18.4062C8.23368 18.3118 8.27131 18.1217 8.27007 17.9922C8.26969 17.9552 8.26931 17.9183 8.26892 17.8802C8.26827 17.8019 8.26777 17.7235 8.2674 17.6451C8.26659 17.5253 8.26454 17.4056 8.26247 17.2859C8.26199 17.2098 8.26159 17.1337 8.26128 17.0576C8.26004 17.0039 8.26004 17.0039 8.25879 16.9491C8.25945 16.7864 8.26892 16.6894 8.36338 16.5545C8.48325 16.4746 8.53268 16.4651 8.67436 16.4755C9.31861 16.4989 9.6583 16.3688 10.1483 15.9584C10.3276 15.8112 10.5166 15.6773 10.7041 15.541C10.7791 15.4855 10.8542 15.4301 10.9291 15.3745C11.1903 15.1817 11.4537 14.9921 11.719 14.8049C11.7727 14.767 11.8264 14.7289 11.8801 14.6907C11.9625 14.6321 12.0452 14.5738 12.1279 14.5156C12.1758 14.4817 12.2237 14.4479 12.2731 14.413C12.5056 14.2646 12.6752 14.2229 12.9515 14.2283C13.0143 14.2292 13.0771 14.2301 13.1399 14.231C13.1894 14.2319 13.1894 14.2319 13.24 14.2329C13.4173 14.236 13.5947 14.2362 13.772 14.2369C13.9967 14.238 14.2213 14.2399 14.4459 14.2448C15.5608 14.291 15.5608 14.291 16.5115 13.7758C16.5381 13.7501 16.5647 13.7245 16.5922 13.6981C16.7191 13.5815 16.8613 13.492 17.0062 13.3995C17.0603 13.3638 17.1143 13.3279 17.1683 13.292C17.2235 13.2555 17.2787 13.219 17.334 13.1826C17.455 13.1024 17.576 13.0221 17.6969 12.9418C17.7277 12.9213 17.7584 12.9009 17.7902 12.8798C18.024 12.7242 18.2566 12.5666 18.4886 12.4082C18.5221 12.3854 18.5556 12.3625 18.5901 12.339C18.7528 12.2281 18.9154 12.117 19.0777 12.0055C19.1363 11.9655 19.195 11.9254 19.2536 11.8854C19.2805 11.8669 19.3073 11.8483 19.335 11.8292C19.5206 11.7031 19.5206 11.7031 19.625 11.7031C19.6245 11.6395 19.6245 11.6395 19.624 11.5747C19.6212 11.1754 19.6191 10.7761 19.6177 10.3767C19.617 10.1714 19.616 9.96615 19.6144 9.76085C19.6128 9.56269 19.612 9.36453 19.6116 9.16636C19.6114 9.0908 19.6109 9.01524 19.6101 8.93969C19.6091 8.83375 19.609 8.72785 19.609 8.62191C19.6086 8.53151 19.6086 8.53151 19.6081 8.43928C19.6386 8.15412 19.7336 7.99402 20.0176 7.98529Z" fill="#BC8A8B"/>
<path d="M8.79688 18.5C10.4675 18.5 12.1381 18.5 13.8594 18.5C13.8749 19.0878 13.8903 19.6756 13.9063 20.2812C14.1547 20.5715 14.1547 20.5715 14.9844 20.5156C14.9844 23.8878 14.9844 27.26 14.9844 30.7344C14.4739 30.7576 14.4739 30.7576 13.9531 30.7812C13.8713 30.863 13.8953 30.9777 13.8914 31.0891C13.8895 31.1418 13.8875 31.1945 13.8855 31.2488C13.8836 31.3043 13.8818 31.3598 13.8799 31.417C13.8769 31.5005 13.8769 31.5005 13.8738 31.5857C13.8688 31.7238 13.864 31.8619 13.8594 32C13.24 32.0054 12.6207 32.0096 12.0013 32.0121C11.7137 32.0134 11.4262 32.015 11.1386 32.0177C10.8611 32.0202 10.5836 32.0216 10.3061 32.0222C10.2002 32.0227 10.0943 32.0235 9.98838 32.0248C9.84012 32.0265 9.69192 32.0267 9.54364 32.0266C9.49978 32.0275 9.45591 32.0283 9.41072 32.0292C9.19881 32.0275 9.10759 32.0226 8.93478 31.8899C8.81231 31.7227 8.79103 31.6044 8.79112 31.4027C8.79102 31.3567 8.79093 31.3107 8.79083 31.2633C8.79097 31.2127 8.79111 31.162 8.79125 31.1098C8.79121 31.0561 8.79117 31.0024 8.79112 30.947C8.79106 30.7977 8.79121 30.6484 8.79144 30.4991C8.79164 30.3381 8.79158 30.1772 8.79154 30.0162C8.79152 29.7373 8.79166 29.4584 8.79193 29.1794C8.79231 28.7762 8.79243 28.3729 8.79249 27.9696C8.79259 27.3153 8.7929 26.6611 8.79335 26.0068C8.79378 25.3712 8.79411 24.7355 8.79431 24.0999C8.79432 24.0607 8.79433 24.0215 8.79435 23.9812C8.79441 23.7847 8.79447 23.5882 8.79452 23.3917C8.79501 21.7612 8.79587 20.1306 8.79688 18.5Z" fill="#FCECD3"/>
<path d="M26.1406 18.5C27.8112 18.5 29.4819 18.5 31.2031 18.5C31.2073 20.18 31.2107 21.86 31.2127 23.54C31.2129 23.7383 31.2132 23.9365 31.2134 24.1348C31.2135 24.1743 31.2135 24.2137 31.2136 24.2544C31.2144 24.8938 31.2159 25.5332 31.2176 26.1727C31.2193 26.8286 31.2204 27.4845 31.2208 28.1404C31.221 28.5453 31.2218 28.9501 31.2234 29.355C31.2243 29.6325 31.2247 29.91 31.2244 30.1875C31.2243 30.3476 31.2245 30.5078 31.2255 30.668C31.2264 30.8416 31.2262 31.0151 31.2257 31.1887C31.2262 31.2395 31.2268 31.2902 31.2273 31.3425C31.2246 31.6833 31.2246 31.6833 31.1138 31.8661C30.9778 31.9866 30.9062 32.0059 30.7291 32.0056C30.6887 32.0057 30.6484 32.0058 30.6068 32.0058C30.5402 32.0056 30.5402 32.0056 30.4723 32.0053C30.4024 32.0053 30.4024 32.0053 30.331 32.0053C30.1763 32.0053 30.0215 32.0049 29.8668 32.0046C29.7598 32.0045 29.6527 32.0044 29.5456 32.0044C29.2634 32.0042 28.9812 32.0037 28.699 32.0032C28.4112 32.0027 28.1234 32.0025 27.8356 32.0023C27.2706 32.0018 26.7056 32.001 26.1406 32C26.1395 31.9647 26.1383 31.9295 26.1371 31.8932C26.1316 31.7344 26.1259 31.5757 26.1201 31.417C26.1183 31.3615 26.1164 31.306 26.1145 31.2488C26.1126 31.1961 26.1106 31.1434 26.1086 31.0891C26.1069 31.0402 26.1051 30.9914 26.1034 30.941C26.1062 30.8305 26.1062 30.8305 26.0469 30.7812C25.722 30.7658 25.3972 30.7503 25.0625 30.7344C25.0625 27.3622 25.0625 23.99 25.0625 20.5156C25.3564 20.5002 25.6503 20.4847 25.9531 20.4688C26.0227 20.4455 26.0227 20.4455 26.0938 20.4219C26.1092 19.7877 26.1247 19.1534 26.1406 18.5Z" fill="#FCECD2"/>
<path d="M20.0176 7.98529C20.0547 7.98354 20.0918 7.98179 20.13 7.97998C20.2344 7.99994 20.2344 7.99994 20.3177 8.07776C20.3886 8.21349 20.3892 8.30468 20.3838 8.45697C20.3819 8.52622 20.3819 8.52622 20.3799 8.59686C20.3783 8.63191 20.3767 8.66696 20.375 8.70306C20.749 8.66223 21.1074 8.60741 21.4707 8.5097C21.926 8.38984 22.1667 8.39059 22.625 8.56244C22.625 9.0265 22.625 9.49056 22.625 9.96869C22.4703 9.93775 22.3156 9.90681 22.1562 9.87494C21.7998 9.86031 21.4652 9.96413 21.1281 10.0699C20.8818 10.1341 20.6274 10.1166 20.375 10.1093C20.2511 10.9876 20.2511 10.9876 20.5227 11.7965C20.7894 12.0375 21.1029 12.2044 21.4189 12.372C21.8311 12.5924 22.2105 12.8616 22.5948 13.1267C22.7925 13.2625 22.9915 13.3964 23.1904 13.5303C23.2244 13.5532 23.2583 13.5761 23.2933 13.5997C23.3613 13.6456 23.4296 13.6911 23.4983 13.7361C23.5791 13.7916 23.6575 13.8508 23.7343 13.912C24.1222 14.2066 24.4515 14.2384 24.9211 14.2277C24.992 14.2276 25.0628 14.2277 25.1336 14.2279C25.3184 14.2282 25.5032 14.2264 25.688 14.224C25.9843 14.2203 26.2806 14.2192 26.5769 14.2193C26.6797 14.2189 26.7823 14.2173 26.8851 14.2155C27.2332 14.2123 27.4855 14.2278 27.7812 14.4218C27.8146 14.4434 27.8479 14.465 27.8823 14.4873C27.9075 14.5069 27.9328 14.5265 27.9589 14.5467C27.9881 14.569 28.0173 14.5914 28.0475 14.6144C28.0776 14.6379 28.1077 14.6613 28.1387 14.6855C28.2048 14.736 28.271 14.7865 28.3372 14.8369C28.3699 14.8619 28.4026 14.8869 28.4363 14.9126C28.5736 15.0163 28.7132 15.1163 28.8535 15.2158C28.9069 15.2537 28.9603 15.2916 29.0137 15.3295C29.0552 15.3589 29.0552 15.3589 29.0975 15.3889C29.3776 15.5886 29.6559 15.7909 29.9346 15.9926C30.0227 16.0563 30.1111 16.1197 30.1995 16.1829C30.2465 16.2166 30.2934 16.2504 30.3418 16.2851C30.4022 16.3282 30.4022 16.3282 30.4637 16.3723C30.4912 16.3938 30.5186 16.4153 30.5469 16.4374C30.5469 16.4529 30.5469 16.4684 30.5469 16.4843C23.5859 16.4843 16.625 16.4843 9.45312 16.4843C9.57515 16.3623 9.66717 16.2713 9.80359 16.1769C9.83458 16.1553 9.86558 16.1336 9.89751 16.1113C9.93069 16.0884 9.96386 16.0655 9.99805 16.0419C10.07 15.9917 10.142 15.9414 10.2139 15.8911C10.2509 15.8652 10.2879 15.8393 10.3261 15.8127C10.504 15.6876 10.6803 15.5601 10.8564 15.4326C10.891 15.4075 10.9256 15.3825 10.9613 15.3568C11.144 15.2246 11.3265 15.092 11.5089 14.9592C11.5463 14.932 11.5837 14.9048 11.6223 14.8768C11.6933 14.8253 11.7641 14.7736 11.8349 14.7218C12.5179 14.2261 12.5179 14.2261 12.9408 14.2336C13.0036 14.2345 13.0664 14.2354 13.1292 14.2363C13.1625 14.2368 13.1958 14.2373 13.2301 14.2379C13.4454 14.2408 13.6607 14.2407 13.876 14.2413C14.0643 14.2419 14.2525 14.2435 14.4407 14.2473C15.5585 14.2921 15.5585 14.2921 16.5117 13.7757C16.5383 13.75 16.5649 13.7244 16.5923 13.698C16.7192 13.5815 16.8613 13.4919 17.0062 13.3995C17.0603 13.3638 17.1143 13.3279 17.1683 13.292C17.2235 13.2555 17.2788 13.219 17.334 13.1826C17.455 13.1024 17.576 13.0221 17.6969 12.9418C17.7277 12.9213 17.7585 12.9009 17.7902 12.8798C18.0241 12.7242 18.2566 12.5666 18.4886 12.4082C18.5221 12.3854 18.5556 12.3625 18.5902 12.339C18.7529 12.2281 18.9154 12.117 19.0777 12.0055C19.1364 11.9655 19.195 11.9254 19.2537 11.8854C19.2805 11.8669 19.3073 11.8483 19.335 11.8292C19.5206 11.7031 19.5206 11.7031 19.625 11.7031C19.6245 11.6395 19.6245 11.6395 19.6241 11.5747C19.6212 11.1754 19.6191 10.7761 19.6177 10.3767C19.617 10.1714 19.616 9.96615 19.6144 9.76085C19.6129 9.56269 19.612 9.36453 19.6117 9.16636C19.6114 9.0908 19.6109 9.01524 19.6101 8.93969C19.6091 8.83375 19.609 8.72785 19.609 8.62191C19.6086 8.53151 19.6086 8.53151 19.6081 8.43928C19.6386 8.15412 19.7337 7.99402 20.0176 7.98529Z" fill="#FDDBA8"/>
<path d="M14.0938 20.4688C18.0073 20.4688 21.9209 20.4688 25.9531 20.4688C25.9531 20.4842 25.9531 20.4997 25.9531 20.5156C25.6592 20.5156 25.3653 20.5156 25.0625 20.5156C25.0625 23.8878 25.0625 27.26 25.0625 30.7344C25.3873 30.7344 25.7122 30.7344 26.0469 30.7344C26.346 31.0335 26.1406 31.577 26.1406 32C24.9495 32 23.7584 32 22.5312 32C22.5312 30.8281 22.5312 30.8281 22.625 30.7344C22.9653 30.7344 23.3056 30.7344 23.6562 30.7344C23.6562 27.3622 23.6562 23.99 23.6562 20.5156C21.2586 20.5156 18.8609 20.5156 16.3906 20.5156C16.3906 23.8878 16.3906 27.26 16.3906 30.7344C16.7155 30.7344 17.0403 30.7344 17.375 30.7344C17.6741 31.0335 17.4688 31.577 17.4688 32C16.2777 32 15.0866 32 13.8594 32C13.8594 30.8281 13.8594 30.8281 13.9531 30.7344C14.2934 30.7344 14.6338 30.7344 14.9844 30.7344C14.9844 27.3622 14.9844 23.99 14.9844 20.5156C14.6905 20.5156 14.3966 20.5156 14.0938 20.5156C14.0938 20.5002 14.0938 20.4847 14.0938 20.4688Z" fill="#FDDAA8"/>
<path d="M26.1406 18.5C27.8112 18.5 29.4819 18.5 31.2031 18.5C31.2073 20.18 31.2107 21.86 31.2127 23.54C31.2129 23.7383 31.2132 23.9365 31.2134 24.1348C31.2135 24.1743 31.2135 24.2137 31.2136 24.2544C31.2144 24.8938 31.2159 25.5332 31.2176 26.1727C31.2193 26.8286 31.2204 27.4845 31.2208 28.1404C31.221 28.5453 31.2218 28.9501 31.2234 29.355C31.2243 29.6325 31.2247 29.91 31.2244 30.1875C31.2243 30.3476 31.2245 30.5078 31.2255 30.668C31.2264 30.8416 31.2262 31.0151 31.2257 31.1887C31.2262 31.2395 31.2268 31.2902 31.2273 31.3425C31.2246 31.6833 31.2246 31.6833 31.1138 31.8661C30.9768 31.9875 30.9047 32.0058 30.7262 32.0053C30.6657 32.0053 30.6657 32.0053 30.6039 32.0053C30.5385 32.0049 30.5385 32.0049 30.4718 32.0046C30.4272 32.0045 30.3826 32.0044 30.3366 32.0044C30.1938 32.0041 30.051 32.0035 29.9082 32.0029C29.8115 32.0027 29.7148 32.0025 29.6182 32.0023C29.3809 32.0018 29.1436 32.001 28.9062 32C28.944 31.971 28.9817 31.942 29.0205 31.9121C29.1424 31.8246 29.1424 31.8246 29.1875 31.7188C29.1921 31.6464 29.1938 31.574 29.194 31.5015C29.1943 31.4554 29.1945 31.4094 29.1948 31.3619C29.1948 31.3109 29.1949 31.2599 29.1949 31.2074C29.1951 31.1536 29.1954 31.0997 29.1956 31.0442C29.1962 30.8942 29.1966 30.7442 29.1969 30.5943C29.1973 30.4327 29.1979 30.2712 29.1985 30.1096C29.1996 29.8296 29.2004 29.5495 29.2011 29.2695C29.2022 28.8645 29.2035 28.4596 29.2049 28.0547C29.2071 27.3978 29.2092 26.7409 29.2111 26.084C29.2129 25.4458 29.2148 24.8076 29.2169 24.1694C29.2171 24.13 29.2172 24.0907 29.2173 24.0502C29.218 23.853 29.2186 23.6557 29.2192 23.4585C29.2246 21.8213 29.2295 20.1841 29.2344 18.5469C28.2289 18.5469 27.2234 18.5469 26.1875 18.5469C26.1875 19.1192 26.1875 19.6916 26.1875 20.2812C26.172 20.2812 26.1566 20.2812 26.1406 20.2812C26.1406 19.6934 26.1406 19.1056 26.1406 18.5Z" fill="#F9E2BE"/>
<path d="M13.8594 18.5469C17.9122 18.5469 21.965 18.5469 26.1406 18.5469C26.1406 19.1347 26.1406 19.7225 26.1406 20.3281C25.9824 20.4863 25.9824 20.4863 25.7957 20.4866C25.7537 20.487 25.7117 20.4874 25.6684 20.4878C25.6222 20.4875 25.5761 20.4872 25.5285 20.4869C25.4549 20.4873 25.4549 20.4873 25.3799 20.4877C25.2148 20.4884 25.0498 20.488 24.8847 20.4877C24.7667 20.488 24.6487 20.4883 24.5307 20.4887C24.2429 20.4894 23.9551 20.4895 23.6674 20.4893C23.4336 20.4891 23.1998 20.4891 22.966 20.4894C22.9327 20.4894 22.8995 20.4895 22.8652 20.4895C22.7977 20.4896 22.7301 20.4896 22.6626 20.4897C22.029 20.4904 21.3954 20.4901 20.7618 20.4896C20.1817 20.4891 19.6016 20.4897 19.0216 20.4908C18.4263 20.492 17.8311 20.4924 17.2359 20.4921C16.9016 20.4919 16.5673 20.4921 16.2329 20.4929C15.9187 20.4936 15.6044 20.4934 15.2902 20.4925C15.1746 20.4924 15.059 20.4925 14.9434 20.493C14.7861 20.4936 14.6288 20.4931 14.4715 20.4922C14.4253 20.4927 14.3792 20.4931 14.3316 20.4936C14.2686 20.4929 14.2686 20.4929 14.2043 20.4922C14.168 20.4922 14.1317 20.4922 14.0942 20.4922C14 20.4687 14 20.4688 13.8594 20.2812C13.8594 19.7089 13.8594 19.1366 13.8594 18.5469Z" fill="#956465"/>
<path d="M20.6577 26.4429C20.9281 26.6559 21.1428 26.9277 21.1846 27.2789C21.1891 27.4036 21.1893 27.5275 21.1879 27.6523C21.1879 27.723 21.1879 27.723 21.1879 27.7951C21.1878 27.9501 21.1867 28.1051 21.1856 28.26C21.1854 28.3678 21.1852 28.4756 21.185 28.5834C21.1845 28.8664 21.1831 29.1495 21.1816 29.4325C21.1799 29.7724 21.1792 30.1124 21.1784 30.4523C21.177 30.9682 21.1743 31.4841 21.1719 32C20.4139 32 19.656 32 18.875 32C18.8637 30.7904 18.8637 30.7904 18.8613 30.2733C18.8596 29.9209 18.8576 29.5686 18.8538 29.2163C18.8507 28.9321 18.8491 28.648 18.8483 28.3638C18.8478 28.2556 18.8468 28.1474 18.8453 28.0392C18.8432 27.8871 18.843 27.7352 18.8431 27.5831C18.8421 27.5388 18.8411 27.4944 18.84 27.4488C18.8432 27.1089 18.953 26.8798 19.1563 26.6093C19.2694 26.5037 19.2694 26.5037 19.3731 26.4423C19.4075 26.421 19.442 26.3997 19.4774 26.3777C19.8517 26.1933 20.31 26.2192 20.6577 26.4429Z" fill="#BD8B8C"/>
<path d="M12.9492 14.2291C12.9803 14.2291 13.0114 14.2291 13.0435 14.229C13.1462 14.2291 13.2489 14.2294 13.3516 14.2298C13.4229 14.2299 13.4942 14.23 13.5654 14.23C13.7529 14.2302 13.9404 14.2306 14.1279 14.2312C14.3192 14.2316 14.5106 14.2319 14.7019 14.2321C15.0773 14.2326 15.4527 14.2334 15.8281 14.2344C15.6935 14.372 15.5629 14.4802 15.4011 14.585C15.3513 14.6177 15.3015 14.6503 15.2502 14.684C15.2227 14.7019 15.1952 14.7199 15.167 14.7384C15.0004 14.8481 14.8354 14.96 14.6702 15.0717C14.6339 15.0962 14.5977 15.1207 14.5604 15.1459C14.4855 15.1964 14.4107 15.247 14.3359 15.2975C14.2235 15.3735 14.1111 15.4493 13.9987 15.5252C13.9621 15.55 13.9254 15.5749 13.8877 15.6005C13.8134 15.6505 13.7388 15.7 13.6639 15.7491C13.4908 15.8635 13.3297 15.9772 13.1786 16.1197C12.5901 16.6488 11.8283 16.5436 11.0864 16.5198C10.9019 16.5145 10.7174 16.5121 10.5329 16.5096C10.1729 16.5041 9.81303 16.4953 9.45312 16.4844C9.56512 16.371 9.67245 16.2677 9.80359 16.177C9.83458 16.1553 9.86558 16.1337 9.89751 16.1114C9.93069 16.0885 9.96386 16.0656 9.99805 16.042C10.07 15.9918 10.142 15.9415 10.2139 15.8911C10.2509 15.8653 10.2879 15.8394 10.3261 15.8128C10.504 15.6876 10.6803 15.5602 10.8564 15.4326C10.9083 15.3951 10.9083 15.3951 10.9613 15.3568C11.144 15.2246 11.3265 15.0921 11.5089 14.9593C11.5463 14.9321 11.5837 14.9049 11.6223 14.8769C11.6933 14.8253 11.7641 14.7737 11.8349 14.7219C12.515 14.2283 12.515 14.2283 12.9492 14.2291Z" fill="#FCECD2"/>
<path d="M24.2188 14.2346C24.6279 14.2302 25.037 14.2269 25.4461 14.2249C25.6361 14.2239 25.8261 14.2226 26.0161 14.2204C26.1997 14.2184 26.3833 14.2173 26.5668 14.2168C26.6367 14.2164 26.7065 14.2158 26.7763 14.2147C27.1541 14.2095 27.457 14.2089 27.7812 14.4221C27.8146 14.4437 27.8479 14.4653 27.8823 14.4876C27.9075 14.5072 27.9328 14.5268 27.9589 14.5469C28.0027 14.5805 28.0027 14.5805 28.0475 14.6147C28.0776 14.6381 28.1077 14.6616 28.1387 14.6857C28.2048 14.7363 28.271 14.7868 28.3372 14.8372C28.3699 14.8622 28.4026 14.8871 28.4363 14.9129C28.5736 15.0165 28.7132 15.1166 28.8535 15.216C28.9069 15.2539 28.9603 15.2918 29.0137 15.3297C29.0414 15.3493 29.069 15.369 29.0975 15.3892C29.3776 15.5888 29.6559 15.7912 29.9346 15.9929C30.0227 16.0566 30.1111 16.1199 30.1995 16.1832C30.2465 16.2169 30.2934 16.2506 30.3418 16.2854C30.4022 16.3285 30.4022 16.3285 30.4637 16.3725C30.4912 16.394 30.5186 16.4155 30.5469 16.4377C30.5469 16.4532 30.5469 16.4686 30.5469 16.4846C30.1557 16.4955 29.7645 16.5038 29.3732 16.5089C29.1914 16.5113 29.0097 16.5146 28.828 16.5199C27.3407 16.5626 27.3407 16.5626 26.8305 16.0864C26.6758 15.9508 26.5001 15.8442 26.3283 15.7318C26.2549 15.6824 26.1816 15.6329 26.1083 15.5832C25.9601 15.4831 25.8119 15.383 25.6637 15.2829C25.4831 15.161 25.3027 15.0388 25.1224 14.9164C25.0501 14.8673 24.9778 14.8184 24.9054 14.7695C24.7998 14.6983 24.6945 14.6268 24.5892 14.5552C24.5571 14.5337 24.5251 14.5121 24.4921 14.4899C24.271 14.339 24.271 14.339 24.2188 14.2346Z" fill="#FCECD2"/>
<path d="M20.0176 7.98529C20.0732 7.98266 20.0732 7.98266 20.13 7.97998C20.2344 7.99994 20.2344 7.99994 20.3177 8.07776C20.3886 8.21349 20.3892 8.30468 20.3838 8.45697C20.3825 8.50313 20.3813 8.5493 20.3799 8.59686C20.3783 8.63191 20.3767 8.66696 20.375 8.70306C20.749 8.66223 21.1074 8.60741 21.4707 8.5097C21.926 8.38984 22.1667 8.39059 22.625 8.56244C22.625 9.0265 22.625 9.49056 22.625 9.96869C22.4703 9.93775 22.3156 9.90681 22.1563 9.87494C21.7998 9.86031 21.4652 9.96413 21.1281 10.0699C20.9375 10.1093 20.9375 10.1093 20.375 10.1093C20.375 10.6198 20.375 11.1303 20.375 11.6562C20.3131 11.6407 20.2513 11.6253 20.1875 11.6093C20.1251 11.6052 20.0625 11.6032 20 11.6035C19.9691 11.6033 19.9381 11.6032 19.9063 11.6031C19.8077 11.6096 19.7203 11.6312 19.625 11.6562C19.6217 11.2202 19.6192 10.7842 19.6177 10.3482C19.617 10.1457 19.616 9.94328 19.6144 9.74083C19.6129 9.5454 19.612 9.34997 19.6117 9.15454C19.6114 9.08003 19.6109 9.00551 19.6101 8.93101C19.6091 8.82653 19.609 8.72209 19.609 8.61761C19.6087 8.55817 19.6084 8.49874 19.6081 8.4375C19.6389 8.15306 19.7347 7.99399 20.0176 7.98529Z" fill="#FC9C98"/>
<path d="M22.9483 30.7224C22.9815 30.7222 23.0147 30.7221 23.049 30.7219C23.1591 30.7215 23.2693 30.7218 23.3794 30.7221C23.4558 30.722 23.5321 30.7219 23.6085 30.7218C23.7686 30.7217 23.9288 30.7219 24.0889 30.7223C24.2945 30.7228 24.5 30.7225 24.7056 30.722C24.8633 30.7216 25.021 30.7217 25.1787 30.722C25.2545 30.722 25.3303 30.722 25.4061 30.7218C25.5119 30.7215 25.6178 30.7219 25.7236 30.7224C25.814 30.7225 25.814 30.7225 25.9063 30.7226C26.0469 30.7345 26.0469 30.7345 26.1406 30.8283C26.1406 31.215 26.1406 31.6017 26.1406 32.0002C24.9495 32.0002 23.7584 32.0002 22.5312 32.0002C22.5312 30.7229 22.5312 30.7229 22.9483 30.7224Z" fill="#956465"/>
<path d="M14.2764 30.7224C14.3096 30.7222 14.3429 30.7221 14.3771 30.7219C14.4873 30.7215 14.5974 30.7218 14.7075 30.7221C14.7839 30.722 14.8602 30.7219 14.9366 30.7218C15.0967 30.7217 15.2569 30.7219 15.417 30.7223C15.6226 30.7228 15.8281 30.7225 16.0337 30.722C16.1914 30.7216 16.3491 30.7217 16.5068 30.722C16.5826 30.722 16.6584 30.722 16.7342 30.7218C16.8401 30.7215 16.9459 30.7219 17.0517 30.7224C17.1422 30.7225 17.1422 30.7225 17.2344 30.7226C17.375 30.7345 17.375 30.7345 17.4688 30.8283C17.4688 31.215 17.4688 31.6017 17.4688 32.0002C16.2777 32.0002 15.0866 32.0002 13.8594 32.0002C13.8594 30.7229 13.8594 30.7229 14.2764 30.7224Z" fill="#956465"/>
<path d="M28.25 21.1721C28.5002 21.2653 28.6463 21.4021 28.7656 21.6408C28.7699 21.7289 28.7711 21.8171 28.771 21.9053C28.7709 21.9607 28.7709 22.0161 28.7709 22.0731C28.7707 22.1331 28.7705 22.1931 28.7702 22.2549C28.7701 22.3162 28.7701 22.3775 28.77 22.4406C28.7698 22.6035 28.7694 22.7664 28.7689 22.9293C28.7684 23.0955 28.7682 23.2617 28.7679 23.4279C28.7674 23.7541 28.7665 24.0803 28.7656 24.4064C28.3325 24.4064 27.8994 24.4064 27.4531 24.4064C27.4502 24.0571 27.4474 23.7078 27.4459 23.3585C27.4451 23.1958 27.4441 23.0332 27.4425 22.8705C27.4407 22.6836 27.44 22.4968 27.4394 22.3099C27.4387 22.2519 27.4379 22.1938 27.4372 22.1341C27.4371 21.6273 27.4371 21.6273 27.5938 21.4064C27.8186 21.2035 27.9454 21.1518 28.25 21.1721Z" fill="#9EBFE3"/>
<path d="M28.2969 26.3282C28.5118 26.3971 28.6189 26.4897 28.7271 26.6884C28.8107 26.9238 28.7881 27.177 28.7839 27.4237C28.7837 27.4836 28.7834 27.5435 28.7831 27.6052C28.7823 27.7634 28.7806 27.9216 28.7785 28.0798C28.7766 28.2416 28.7757 28.4034 28.7748 28.5653C28.7729 28.8821 28.7692 29.1989 28.7656 29.5157C28.3325 29.5157 27.8994 29.5157 27.4531 29.5157C27.4492 29.1664 27.4454 28.8171 27.4434 28.4678C27.4424 28.3051 27.4411 28.1424 27.439 27.9797C27.4365 27.7929 27.4356 27.606 27.4348 27.4191C27.4338 27.3611 27.4329 27.3031 27.4319 27.2433C27.4318 26.8493 27.4783 26.6919 27.7432 26.4044C27.9305 26.2961 28.0855 26.2983 28.2969 26.3282Z" fill="#9EBFE3"/>
<path d="M11.9844 21.1719C12.1977 21.2806 12.3645 21.4149 12.4531 21.6406C12.4791 21.8516 12.4749 22.0608 12.4714 22.2731C12.4712 22.3341 12.4709 22.3951 12.4706 22.4579C12.4699 22.6193 12.4681 22.7806 12.466 22.942C12.4641 23.107 12.4632 23.2719 12.4623 23.4369C12.4604 23.7601 12.4567 24.0831 12.4531 24.4063C12.0355 24.4063 11.6178 24.4063 11.1875 24.4063C11.1836 24.0447 11.1798 23.6833 11.1778 23.3217C11.1768 23.1533 11.1755 22.985 11.1734 22.8166C11.1713 22.6543 11.1702 22.492 11.1697 22.3297C11.1692 22.238 11.1677 22.1462 11.1663 22.0544C11.1661 21.532 11.1661 21.532 11.375 21.3125C11.5796 21.1761 11.7404 21.1414 11.9844 21.1719Z" fill="#9CBEE3"/>
<path d="M11.9844 26.3279C12.178 26.3936 12.3036 26.4769 12.4146 26.6512C12.5043 26.8805 12.4754 27.14 12.4714 27.3822C12.4712 27.4432 12.4709 27.5042 12.4706 27.567C12.4699 27.7284 12.4681 27.8898 12.466 28.0511C12.4641 28.2161 12.4632 28.3811 12.4623 28.546C12.4604 28.8692 12.4567 29.1922 12.4531 29.5154C12.0355 29.5154 11.6178 29.5154 11.1875 29.5154C11.1826 29.1538 11.1779 28.7924 11.1754 28.4308C11.1741 28.2625 11.1725 28.0941 11.1698 27.9257C11.1673 27.7634 11.1659 27.6012 11.1653 27.4388C11.1646 27.3471 11.1628 27.2553 11.161 27.1636C11.1608 26.6979 11.1608 26.6979 11.2973 26.528C11.5361 26.3242 11.6798 26.295 11.9844 26.3279Z" fill="#9CBEE3"/>
<path d="M29.5625 16.4846C29.8394 16.4788 30.1164 16.4745 30.3933 16.4717C30.4876 16.4705 30.5818 16.4689 30.676 16.4669C30.8114 16.464 30.9468 16.4627 31.0823 16.4617C31.1244 16.4605 31.1665 16.4593 31.2098 16.458C31.498 16.4579 31.498 16.4579 31.6515 16.5811C31.733 16.7482 31.7458 16.8898 31.7437 17.072C31.7438 17.1054 31.744 17.1389 31.7442 17.1733C31.7443 17.2438 31.744 17.3142 31.7432 17.3846C31.7422 17.4921 31.7432 17.5994 31.7444 17.7068C31.7443 17.7755 31.744 17.8441 31.7437 17.9128C31.744 17.9447 31.7444 17.9766 31.7448 18.0094C31.7418 18.1653 31.7193 18.2649 31.644 18.4021C31.4158 18.6007 31.0991 18.552 30.8122 18.5414C30.7762 18.5403 30.7403 18.5392 30.7033 18.538C30.5896 18.5345 30.476 18.5305 30.3623 18.5266C30.2848 18.5241 30.2072 18.5216 30.1297 18.5191C29.9406 18.5131 29.7515 18.5068 29.5625 18.5002C29.5929 18.4767 29.6233 18.4531 29.6547 18.4289C29.7812 18.2747 29.7771 18.1449 29.7749 17.954C29.7751 17.9194 29.7753 17.8849 29.7754 17.8493C29.7756 17.7764 29.7752 17.7034 29.7744 17.6305C29.7734 17.5193 29.7744 17.4082 29.7756 17.2969C29.7755 17.2259 29.7753 17.1549 29.7749 17.0839C29.7753 17.0508 29.7757 17.0177 29.7761 16.9837C29.7718 16.7582 29.7193 16.6451 29.5625 16.4846Z" fill="#AE7374"/>
<path d="M20.395 22.2802C20.6846 22.4118 20.9119 22.6581 21.0313 22.9529C21.0852 23.3399 21.0294 23.6666 20.7969 23.9841C20.6957 24.0821 20.5927 24.1524 20.4688 24.2185C20.433 24.2388 20.3972 24.2591 20.3604 24.28C20.0714 24.354 19.8116 24.3535 19.543 24.2156C19.2658 24.0424 19.0724 23.8272 18.9688 23.5154C18.9234 23.2 18.9565 22.9434 19.1264 22.6722C19.4566 22.2664 19.8876 22.1445 20.395 22.2802Z" fill="#9DBEE3"/>
<path d="M20.0176 7.98529C20.0732 7.98266 20.0732 7.98266 20.13 7.97998C20.2344 7.99994 20.2344 7.99994 20.3102 8.0737C20.3993 8.23012 20.3919 8.34755 20.391 8.52715C20.391 8.57794 20.391 8.57794 20.391 8.62975C20.3909 8.74136 20.3898 8.85294 20.3887 8.96454C20.3885 9.04204 20.3883 9.11954 20.3881 9.19705C20.3876 9.4008 20.3862 9.60454 20.3847 9.80829C20.3832 10.0163 20.3826 10.2243 20.3819 10.4323C20.3804 10.8403 20.378 11.2482 20.375 11.6562C20.346 11.6486 20.317 11.641 20.2871 11.6331C20.1875 11.6093 20.1021 11.6031 20 11.6035C19.9691 11.6033 19.9381 11.6032 19.9063 11.6031C19.8077 11.6096 19.7203 11.6312 19.625 11.6562C19.6217 11.2202 19.6192 10.7842 19.6177 10.3482C19.617 10.1457 19.616 9.94328 19.6144 9.74083C19.6129 9.5454 19.612 9.34997 19.6117 9.15454C19.6114 9.08003 19.6109 9.00551 19.6101 8.93101C19.6091 8.82653 19.609 8.72209 19.609 8.61761C19.6087 8.55817 19.6084 8.49874 19.6081 8.4375C19.6389 8.15306 19.7347 7.99399 20.0176 7.98529Z" fill="#BD8B8B"/>
</g>
<defs>
<clipPath id="clip0_461_370">
<rect width="24" height="24" fill="white" transform="translate(8 8)"/>
</clipPath>
</defs>
</svg>
