<svg width="40" height="40" viewBox="0 0 40 40" fill="none" xmlns="http://www.w3.org/2000/svg">
<circle cx="20" cy="20" r="20" fill="#F0F7FF"/>
<g clip-path="url(#clip0_461_372)">
<path d="M20.0772 8.16346C20.3173 8.21623 20.5064 8.38348 20.7003 8.52757C20.7478 8.56182 20.7954 8.59607 20.8444 8.63136C20.9406 8.70068 21.0366 8.77034 21.1323 8.84036C21.3109 8.97076 21.4918 9.09783 21.6729 9.22483C21.7366 9.26985 21.8002 9.3149 21.8639 9.35996C22.0858 9.51686 22.3086 9.67261 22.5313 9.82835C22.8533 10.0535 23.1746 10.2794 23.4954 10.5062C23.7911 10.7152 24.0878 10.9227 24.3846 11.1302C24.6751 11.3335 24.965 11.5375 25.2545 11.7423C25.5024 11.9176 25.7512 12.0918 26.0001 12.2658C26.0007 12.2055 26.0014 12.1452 26.0021 12.0831C26.0048 11.8595 26.0085 11.6359 26.0124 11.4124C26.0139 11.3156 26.0152 11.2188 26.0163 11.122C26.0179 10.9829 26.0203 10.8439 26.0229 10.7049C26.0232 10.6615 26.0235 10.6181 26.0239 10.5735C26.0248 10.5331 26.0257 10.4928 26.0267 10.4512C26.0272 10.4157 26.0277 10.3802 26.0282 10.3437C26.0521 10.2246 26.0918 10.1824 26.1876 10.1096C26.3218 10.0914 26.3218 10.0914 26.4835 10.0909C26.5416 10.0907 26.5997 10.0906 26.6596 10.0904C26.7508 10.0912 26.7508 10.0912 26.8438 10.092C26.9046 10.0915 26.9654 10.0909 27.028 10.0904C27.0861 10.0906 27.1443 10.0907 27.2042 10.0909C27.2575 10.0911 27.3109 10.0912 27.3658 10.0914C27.5001 10.1096 27.5001 10.1096 27.5778 10.1615C27.6719 10.2942 27.6575 10.4017 27.6566 10.5631C27.6567 10.5947 27.6567 10.6262 27.6567 10.6588C27.6566 10.763 27.6555 10.8672 27.6544 10.9715C27.6542 11.0438 27.654 11.1161 27.6538 11.1884C27.6533 11.3787 27.6519 11.5689 27.6503 11.7592C27.6489 11.9534 27.6483 12.1476 27.6476 12.3417C27.646 12.7227 27.6436 13.1036 27.6407 13.4846C27.6775 13.4989 27.7143 13.5132 27.7523 13.5279C27.8673 13.5752 27.9519 13.6255 28.0512 13.6994C28.0839 13.7234 28.1166 13.7475 28.1504 13.7723C28.1852 13.7982 28.22 13.8241 28.2559 13.8508C28.555 14.0703 28.8569 14.2844 29.1641 14.4924C29.4875 14.7119 29.8059 14.9372 30.1218 15.1674C30.4619 15.4146 30.8073 15.6538 31.1538 15.8919C31.8215 16.3529 31.8215 16.3529 32.0001 16.5315C32.0272 16.863 32.0272 16.863 31.9268 17.0237C31.767 17.122 31.6707 17.1131 31.4844 17.094C31.358 17.0345 31.2503 16.9549 31.1387 16.8713C31.1064 16.8481 31.0741 16.8249 31.0407 16.801C30.9725 16.7519 30.9044 16.7026 30.8366 16.6529C30.674 16.5343 30.5093 16.4188 30.3448 16.303C30.2104 16.2082 30.076 16.1135 29.9376 16.0158C29.4967 15.7142 29.4967 15.7142 29.0469 15.4065C29.0469 20.1863 29.0469 24.9662 29.0469 29.8908C29.1088 29.8754 29.1707 29.8599 29.2344 29.844C29.8602 29.7892 30.4277 29.8243 30.9296 30.2371C30.958 30.2621 30.9864 30.287 31.0157 30.3127C31.0441 30.3362 31.0725 30.3597 31.1017 30.3839C31.4076 30.6584 31.6544 31.0831 31.6782 31.4998C31.678 31.5546 31.678 31.5546 31.6778 31.6106C31.6779 31.6475 31.678 31.6844 31.6782 31.7225C31.6719 31.8127 31.6719 31.8127 31.6251 31.8596C31.502 31.8643 31.3801 31.8659 31.257 31.8655C31.2178 31.8656 31.1786 31.8656 31.1382 31.8657C31.0051 31.8659 30.872 31.8657 30.7389 31.8655C30.6431 31.8656 30.5474 31.8657 30.4517 31.8658C30.1874 31.866 29.923 31.8659 29.6586 31.8657C29.3741 31.8656 29.0895 31.8658 28.8049 31.8659C28.2792 31.8661 27.7535 31.8661 27.2278 31.866C26.7422 31.8658 26.2566 31.8658 25.771 31.8659C25.7389 31.8659 25.7067 31.8659 25.6736 31.8659C25.5431 31.8659 25.4125 31.8659 25.282 31.8659C24.0565 31.8661 22.8311 31.8659 21.6056 31.8657C20.5159 31.8655 19.4261 31.8655 18.3363 31.8657C17.1132 31.866 15.89 31.8661 14.6668 31.8659C14.5366 31.8659 14.4063 31.8659 14.276 31.8659C14.2439 31.8659 14.2118 31.8659 14.1787 31.8659C13.6934 31.8658 13.208 31.8659 12.7226 31.866C12.1709 31.8661 11.6192 31.8661 11.0676 31.8658C10.7858 31.8657 10.504 31.8657 10.2222 31.8658C9.96474 31.866 9.70725 31.8659 9.44975 31.8656C9.35616 31.8656 9.26256 31.8656 9.16897 31.8657C9.04263 31.8659 8.91629 31.8657 8.78994 31.8655C8.73431 31.8657 8.73431 31.8657 8.67755 31.8658C8.42728 31.8649 8.42728 31.8649 8.37506 31.8127C8.33706 31.3416 8.47503 30.9458 8.77386 30.5801C9.1084 30.1982 9.51647 29.8859 10.0364 29.8321C10.1519 29.8286 10.2664 29.8293 10.3819 29.8323C10.4209 29.8325 10.4599 29.8327 10.5001 29.833C10.6799 29.8353 10.8235 29.8467 11.0001 29.8908C10.9846 25.111 10.9691 20.3312 10.9532 15.4065C10.3423 15.8263 10.3423 15.8263 9.73443 16.2502C9.676 16.291 9.676 16.291 9.61639 16.3326C9.4266 16.4649 9.23776 16.5982 9.0509 16.7347C9.00055 16.7709 9.00055 16.7709 8.94919 16.8078C8.88685 16.8526 8.82492 16.8979 8.76352 16.944C8.56559 17.0848 8.42878 17.1228 8.18756 17.094C8.0733 17.0237 8.0733 17.0237 8.00006 16.9065C7.95913 16.6758 7.95913 16.6758 8.00006 16.5315C8.25366 16.2851 8.54696 16.0922 8.83795 15.8928C8.93483 15.8259 9.03169 15.759 9.12854 15.6921C9.19963 15.6431 9.19963 15.6431 9.27216 15.5931C9.45346 15.4676 9.63364 15.3406 9.81354 15.2131C10.099 15.011 10.3853 14.81 10.6719 14.6096C11.0947 14.314 11.5163 14.0168 11.9376 13.719C12.3986 13.393 12.8603 13.0681 13.3231 12.7445C13.5726 12.5699 13.8217 12.3948 14.0704 12.219C14.3589 12.015 14.648 11.8121 14.9376 11.6096C15.3603 11.314 15.782 11.0168 16.2032 10.719C16.6642 10.393 17.126 10.0681 17.5887 9.74451C17.8382 9.56995 18.0873 9.39477 18.336 9.21897C18.6382 9.00534 18.941 8.79258 19.2442 8.5803C19.2847 8.55196 19.3251 8.52362 19.3668 8.49442C19.4045 8.46802 19.4423 8.44161 19.4811 8.41441C19.5146 8.39098 19.5481 8.36756 19.5826 8.34343C19.7534 8.22503 19.8632 8.15741 20.0772 8.16346Z" fill="#ECEAEC"/>
<path d="M20.0772 8.16346C20.3173 8.21623 20.5064 8.38348 20.7003 8.52757C20.7478 8.56182 20.7954 8.59607 20.8444 8.63136C20.9406 8.70068 21.0366 8.77034 21.1323 8.84036C21.3109 8.97076 21.4918 9.09783 21.6729 9.22483C21.7366 9.26985 21.8002 9.3149 21.8639 9.35996C22.0858 9.51686 22.3086 9.67261 22.5313 9.82835C22.8533 10.0535 23.1746 10.2794 23.4954 10.5062C23.7911 10.7152 24.0878 10.9227 24.3846 11.1302C24.6751 11.3335 24.965 11.5375 25.2545 11.7423C25.5024 11.9176 25.7512 12.0918 26.0001 12.2658C26.0007 12.2055 26.0014 12.1452 26.0021 12.0831C26.0048 11.8595 26.0085 11.6359 26.0124 11.4124C26.0139 11.3156 26.0152 11.2188 26.0163 11.122C26.0179 10.9829 26.0203 10.8439 26.0229 10.7049C26.0232 10.6615 26.0235 10.6181 26.0239 10.5735C26.0248 10.5331 26.0257 10.4928 26.0267 10.4512C26.0272 10.4157 26.0277 10.3802 26.0282 10.3437C26.0521 10.2246 26.0918 10.1824 26.1876 10.1096C26.3218 10.0914 26.3218 10.0914 26.4835 10.0909C26.5416 10.0907 26.5997 10.0906 26.6596 10.0904C26.7508 10.0912 26.7508 10.0912 26.8438 10.092C26.9046 10.0915 26.9654 10.0909 27.028 10.0904C27.0861 10.0906 27.1443 10.0907 27.2042 10.0909C27.2575 10.0911 27.3109 10.0912 27.3658 10.0914C27.5001 10.1096 27.5001 10.1096 27.5778 10.1615C27.6719 10.2942 27.6575 10.4017 27.6566 10.5631C27.6567 10.5947 27.6567 10.6262 27.6567 10.6588C27.6566 10.763 27.6555 10.8672 27.6544 10.9715C27.6542 11.0438 27.654 11.1161 27.6538 11.1884C27.6533 11.3787 27.6519 11.5689 27.6503 11.7592C27.6489 11.9534 27.6483 12.1476 27.6476 12.3417C27.646 12.7227 27.6436 13.1036 27.6407 13.4846C27.6775 13.4989 27.7143 13.5132 27.7523 13.5279C27.8673 13.5752 27.9519 13.6255 28.0512 13.6994C28.0839 13.7234 28.1166 13.7475 28.1504 13.7723C28.1852 13.7982 28.22 13.8241 28.2559 13.8508C28.555 14.0703 28.8569 14.2844 29.1641 14.4924C29.4875 14.7119 29.8059 14.9372 30.1218 15.1674C30.4619 15.4146 30.8073 15.6538 31.1538 15.8919C31.8215 16.3529 31.8215 16.3529 32.0001 16.5315C32.0272 16.863 32.0272 16.863 31.9268 17.0237C31.767 17.122 31.6707 17.1131 31.4844 17.094C31.358 17.0345 31.2503 16.9549 31.1387 16.8713C31.1064 16.8481 31.0741 16.8249 31.0407 16.801C30.9725 16.7519 30.9044 16.7026 30.8366 16.6529C30.674 16.5343 30.5093 16.4188 30.3448 16.303C30.2104 16.2082 30.076 16.1135 29.9376 16.0158C29.4967 15.7142 29.4967 15.7142 29.0469 15.4065C29.0469 16.9379 29.0469 18.4693 29.0469 20.0471C23.0915 20.0471 17.136 20.0471 11.0001 20.0471C10.9846 18.5157 10.9691 16.9843 10.9532 15.4065C10.3423 15.8263 10.3423 15.8263 9.73443 16.2502C9.676 16.291 9.676 16.291 9.61639 16.3326C9.4266 16.4649 9.23776 16.5982 9.0509 16.7347C9.00055 16.7709 9.00055 16.7709 8.94919 16.8078C8.88685 16.8526 8.82492 16.8979 8.76352 16.944C8.56559 17.0848 8.42878 17.1228 8.18756 17.094C8.0733 17.0237 8.0733 17.0237 8.00006 16.9065C7.95913 16.6758 7.95913 16.6758 8.00006 16.5315C8.25366 16.2851 8.54696 16.0922 8.83795 15.8928C8.93483 15.8259 9.03169 15.759 9.12854 15.6921C9.19963 15.6431 9.19963 15.6431 9.27216 15.5931C9.45346 15.4676 9.63364 15.3406 9.81354 15.2131C10.099 15.011 10.3853 14.81 10.6719 14.6096C11.0947 14.314 11.5163 14.0168 11.9376 13.719C12.3986 13.393 12.8603 13.0681 13.3231 12.7445C13.5726 12.5699 13.8217 12.3948 14.0704 12.219C14.3589 12.015 14.648 11.8121 14.9376 11.6096C15.3603 11.314 15.782 11.0168 16.2032 10.719C16.6642 10.393 17.126 10.0681 17.5887 9.74451C17.8382 9.56995 18.0873 9.39477 18.336 9.21897C18.6382 9.00534 18.941 8.79258 19.2442 8.5803C19.2847 8.55196 19.3251 8.52362 19.3668 8.49442C19.4045 8.46802 19.4423 8.44161 19.4811 8.41441C19.5146 8.39098 19.5481 8.36756 19.5826 8.34343C19.7534 8.22503 19.8632 8.15741 20.0772 8.16346Z" fill="#6F6571"/>
<path d="M26.9375 20.0469C27.6336 20.0469 28.3297 20.0469 29.0469 20.0469C29.0469 23.2953 29.0469 26.5438 29.0469 29.8906C29.1088 29.8752 29.1707 29.8597 29.2344 29.8438C29.8602 29.789 30.4277 29.8241 30.9296 30.2369C30.958 30.2618 30.9864 30.2868 31.0157 30.3125C31.0441 30.336 31.0725 30.3595 31.1017 30.3837C31.4076 30.6582 31.6543 31.0829 31.6781 31.4996C31.678 31.5361 31.6779 31.5727 31.6778 31.6104C31.6779 31.6473 31.678 31.6842 31.6781 31.7222C31.6719 31.8125 31.6719 31.8125 31.625 31.8594C31.542 31.8639 31.4588 31.8651 31.3756 31.865C31.3215 31.8651 31.2674 31.8651 31.2117 31.8652C31.1518 31.865 31.0919 31.8649 31.0302 31.8647C30.9669 31.8647 30.9037 31.8647 30.8404 31.8647C30.6681 31.8647 30.4958 31.8645 30.3235 31.8641C30.1437 31.8638 29.9638 31.8638 29.7839 31.8638C29.4431 31.8636 29.1023 31.8632 28.7615 31.8628C28.3736 31.8622 27.9856 31.862 27.5977 31.8617C26.7995 31.8612 26.0013 31.8604 25.2032 31.8594C25.1967 31.2871 25.3823 30.8316 25.7657 30.4063C25.8832 30.2969 26.0036 30.2082 26.1407 30.125C26.1711 30.1063 26.2015 30.0875 26.2328 30.0682C26.4835 29.9282 26.6298 29.9248 26.9375 29.8906C26.9375 26.6422 26.9375 23.3938 26.9375 20.0469Z" fill="#DBD9DC"/>
<path d="M17.8906 24.3594C19.2983 24.3594 20.7059 24.3594 22.1562 24.3594C22.1562 26.8189 22.1562 29.2784 22.1562 31.8125C20.7486 31.8125 19.3409 31.8125 17.8906 31.8125C17.8906 29.353 17.8906 26.8934 17.8906 24.3594Z" fill="#6F6571"/>
<path d="M20.0772 8.16346C20.3173 8.21623 20.5064 8.38348 20.7003 8.52757C20.7478 8.56182 20.7954 8.59607 20.8444 8.63136C20.9406 8.70068 21.0366 8.77034 21.1323 8.84036C21.3109 8.97076 21.4918 9.09783 21.6729 9.22483C21.7366 9.26985 21.8002 9.3149 21.8639 9.35996C22.0858 9.51686 22.3086 9.67261 22.5313 9.82835C22.8533 10.0535 23.1746 10.2794 23.4954 10.5062C23.7911 10.7152 24.0878 10.9227 24.3846 11.1302C24.6751 11.3335 24.965 11.5375 25.2545 11.7423C25.5024 11.9176 25.7512 12.0918 26.0001 12.2658C26.0007 12.2055 26.0014 12.1452 26.0021 12.0831C26.0048 11.8595 26.0085 11.6359 26.0124 11.4124C26.0139 11.3156 26.0152 11.2188 26.0163 11.122C26.0179 10.9829 26.0203 10.8439 26.0229 10.7049C26.0232 10.6615 26.0235 10.6181 26.0239 10.5735C26.0248 10.5331 26.0257 10.4928 26.0267 10.4512C26.0272 10.4157 26.0277 10.3802 26.0282 10.3437C26.0521 10.2246 26.0918 10.1824 26.1876 10.1096C26.3218 10.0914 26.3218 10.0914 26.4835 10.0909C26.5416 10.0907 26.5997 10.0906 26.6596 10.0904C26.7508 10.0912 26.7508 10.0912 26.8438 10.092C26.9046 10.0915 26.9654 10.0909 27.028 10.0904C27.0861 10.0906 27.1443 10.0907 27.2042 10.0909C27.2575 10.0911 27.3109 10.0912 27.3658 10.0914C27.5001 10.1096 27.5001 10.1096 27.5778 10.1615C27.6719 10.2942 27.6575 10.4017 27.6566 10.5631C27.6567 10.5947 27.6567 10.6262 27.6567 10.6588C27.6566 10.763 27.6555 10.8672 27.6544 10.9715C27.6542 11.0438 27.654 11.1161 27.6538 11.1884C27.6533 11.3787 27.6519 11.5689 27.6503 11.7592C27.6489 11.9534 27.6483 12.1476 27.6476 12.3417C27.646 12.7227 27.6436 13.1036 27.6407 13.4846C27.6775 13.4989 27.7143 13.5132 27.7523 13.5279C27.8673 13.5752 27.9519 13.6255 28.0512 13.6994C28.0839 13.7234 28.1166 13.7475 28.1504 13.7723C28.1852 13.7982 28.22 13.8241 28.2559 13.8508C28.555 14.0703 28.8569 14.2844 29.1641 14.4924C29.4875 14.7119 29.8059 14.9372 30.1218 15.1674C30.4619 15.4146 30.8073 15.6538 31.1538 15.8919C31.8215 16.3529 31.8215 16.3529 32.0001 16.5315C32.0272 16.863 32.0272 16.863 31.9268 17.0237C31.767 17.122 31.6707 17.1131 31.4844 17.094C31.358 17.0345 31.2503 16.9549 31.1387 16.8713C31.1064 16.8481 31.0741 16.8249 31.0407 16.801C30.9725 16.7519 30.9044 16.7026 30.8366 16.6529C30.674 16.5343 30.5093 16.4188 30.3448 16.303C30.2104 16.2082 30.076 16.1135 29.9376 16.0158C29.4967 15.7142 29.4967 15.7142 29.0469 15.4065C29.0469 16.9379 29.0469 18.4693 29.0469 20.0471C29.0315 20.0471 29.016 20.0471 29.0001 20.0471C29.0001 18.4693 29.0001 16.8915 29.0001 15.2658C28.9227 15.2349 28.8454 15.204 28.7657 15.1721C28.6607 15.0999 28.5593 15.0265 28.4581 14.9494C28.1782 14.7404 27.895 14.5369 27.6085 14.3371C27.569 14.3096 27.5296 14.2821 27.489 14.2538C27.4082 14.1975 27.3274 14.1412 27.2466 14.0849C27.0467 13.9457 26.8471 13.806 26.6475 13.6662C26.6086 13.639 26.5697 13.6118 26.5296 13.5837C26.1169 13.2947 25.7054 13.004 25.294 12.7131C24.8651 12.4099 24.4355 12.1079 24.0052 11.807C23.7232 11.6098 23.442 11.4116 23.161 11.213C22.9048 11.0319 22.6478 10.8519 22.3907 10.6721C21.8954 10.3257 21.4016 9.9772 20.9083 9.62803C20.8725 9.60272 20.8367 9.57741 20.7998 9.55133C20.7317 9.50319 20.6637 9.45502 20.5957 9.40682C20.5348 9.36375 20.4737 9.32096 20.4123 9.27848C20.3576 9.23975 20.3038 9.19963 20.2512 9.158C20.1726 9.09521 20.1726 9.09521 20.0469 9.03147C19.8263 9.07022 19.6371 9.24151 19.4581 9.37132C19.3867 9.42237 19.3154 9.47339 19.244 9.52439C19.2067 9.55113 19.1694 9.57787 19.131 9.60542C18.9373 9.74365 18.7421 9.87966 18.5469 10.0158C18.2574 10.2183 17.9682 10.4213 17.6797 10.6252C17.3913 10.8292 17.1021 11.0321 16.8126 11.2346C16.3898 11.5302 15.9682 11.8274 15.5469 12.1252C15.0859 12.4512 14.6241 12.7761 14.1614 13.0997C13.9119 13.2742 13.6628 13.4494 13.4141 13.6252C13.1256 13.8292 12.8365 14.0321 12.5469 14.2346C12.2419 14.4479 11.9371 14.6617 11.6329 14.8762C11.5837 14.9109 11.5837 14.9109 11.5334 14.9462C11.5029 14.9678 11.4724 14.9893 11.441 15.0115C11.4013 15.0395 11.4013 15.0395 11.3609 15.068C11.2709 15.1327 11.1824 15.1994 11.0938 15.2658C11.0783 16.8282 11.0629 18.3905 11.0469 20.0002C16.2908 20.0002 21.5347 20.0002 26.9376 20.0002C26.9376 20.0157 26.9376 20.0312 26.9376 20.0471C21.6782 20.0471 16.4188 20.0471 11.0001 20.0471C10.9846 18.5157 10.9691 16.9843 10.9532 15.4065C10.3423 15.8263 10.3423 15.8263 9.73443 16.2502C9.676 16.291 9.676 16.291 9.61639 16.3326C9.4266 16.4649 9.23776 16.5982 9.0509 16.7347C9.00055 16.7709 9.00055 16.7709 8.94919 16.8078C8.88685 16.8526 8.82492 16.8979 8.76352 16.944C8.56559 17.0848 8.42878 17.1228 8.18756 17.094C8.0733 17.0237 8.0733 17.0237 8.00006 16.9065C7.95913 16.6758 7.95913 16.6758 8.00006 16.5315C8.25366 16.2851 8.54696 16.0922 8.83795 15.8928C8.93483 15.8259 9.03169 15.759 9.12854 15.6921C9.19963 15.6431 9.19963 15.6431 9.27216 15.5931C9.45346 15.4676 9.63364 15.3406 9.81354 15.2131C10.099 15.011 10.3853 14.81 10.6719 14.6096C11.0947 14.314 11.5163 14.0168 11.9376 13.719C12.3986 13.393 12.8603 13.0681 13.3231 12.7445C13.5726 12.5699 13.8217 12.3948 14.0704 12.219C14.3589 12.015 14.648 11.8121 14.9376 11.6096C15.3603 11.314 15.782 11.0168 16.2032 10.719C16.6642 10.393 17.126 10.0681 17.5887 9.74451C17.8382 9.56995 18.0873 9.39477 18.336 9.21897C18.6382 9.00534 18.941 8.79258 19.2442 8.5803C19.2847 8.55196 19.3251 8.52362 19.3668 8.49442C19.4045 8.46802 19.4423 8.44161 19.4811 8.41441C19.5146 8.39098 19.5481 8.36756 19.5826 8.34343C19.7534 8.22503 19.8632 8.15741 20.0772 8.16346Z" fill="#E06872"/>
<path d="M24.1719 22.625C24.9453 22.625 25.7188 22.625 26.5156 22.625C26.5156 24.6669 26.5156 26.7087 26.5156 28.8125C25.7422 28.8125 24.9688 28.8125 24.1719 28.8125C24.1719 26.7706 24.1719 24.7287 24.1719 22.625Z" fill="#C7DCF5"/>
<path d="M20.9487 13.1308C21.5427 13.4635 21.8954 13.9206 22.1094 14.5627C22.1733 15.2157 22.1161 15.7953 21.7197 16.338C21.6636 16.4038 21.606 16.4683 21.5469 16.5314C21.519 16.5613 21.4911 16.5911 21.4623 16.6219C20.989 17.0794 20.3988 17.1671 19.7708 17.1567C19.1962 17.1313 18.7588 16.8072 18.3711 16.4054C17.9493 15.9052 17.8996 15.3007 17.9271 14.6772C17.9767 14.1313 18.3636 13.6652 18.7694 13.3238C19.397 12.8865 20.2527 12.8135 20.9487 13.1308Z" fill="#C6DBF5"/>
<path d="M13.5781 22.6719C14.3206 22.6719 15.0631 22.6719 15.8281 22.6719C15.8281 24.7138 15.8281 26.7556 15.8281 28.8594C15.0856 28.8594 14.3431 28.8594 13.5781 28.8594C13.5781 26.8175 13.5781 24.7756 13.5781 22.6719Z" fill="#C7DCF5"/>
<path d="M26.9375 13.8594C27.3061 14.07 27.3061 14.07 27.4509 14.1771C27.4839 14.2012 27.5169 14.2253 27.5509 14.2502C27.5844 14.275 27.6179 14.2997 27.6523 14.3252C27.7179 14.3736 27.7836 14.4219 27.8494 14.47C27.9028 14.5108 27.9028 14.5108 27.9572 14.5524C28.0797 14.636 28.1953 14.7018 28.3265 14.7689C28.9252 15.0936 28.9252 15.0936 29.0501 15.3808C29.1251 15.7073 29.1023 16.0389 29.087 16.371C29.0853 16.4774 29.084 16.5837 29.0832 16.69C29.0798 16.9682 29.071 17.2459 29.0612 17.5239C29.0504 17.8583 29.0463 18.1929 29.0412 18.5274C29.0326 19.0342 29.0155 19.5401 29 20.0469C28.3194 20.0469 27.6388 20.0469 26.9375 20.0469C26.9375 18.005 26.9375 15.9631 26.9375 13.8594Z" fill="#5C525F"/>
<path d="M28.1944 30.1163C28.3412 30.2064 28.3412 30.2064 28.5079 30.2013C28.5659 30.1636 28.5659 30.1636 28.625 30.1251C28.6961 30.0846 28.7674 30.0446 28.8389 30.005C28.8738 29.9846 28.9086 29.9642 28.9446 29.9433C29.3193 29.7509 29.8838 29.7955 30.2851 29.8759C30.5663 29.9713 30.7936 30.1174 31.0157 30.3126C31.0441 30.3361 31.0725 30.3596 31.1017 30.3838C31.4076 30.6583 31.6543 31.083 31.6781 31.4997C31.678 31.5362 31.6779 31.5728 31.6778 31.6104C31.6779 31.6474 31.678 31.6843 31.6781 31.7223C31.6719 31.8126 31.6719 31.8126 31.625 31.8595C31.542 31.864 31.4588 31.8652 31.3756 31.8651C31.3215 31.8652 31.2674 31.8652 31.2117 31.8653C31.1518 31.8651 31.0919 31.865 31.0302 31.8648C30.9669 31.8648 30.9037 31.8648 30.8404 31.8648C30.6681 31.8648 30.4958 31.8645 30.3235 31.8642C30.1437 31.8639 29.9638 31.8639 29.7839 31.8638C29.4431 31.8637 29.1023 31.8633 28.7615 31.8628C28.3736 31.8623 27.9856 31.8621 27.5977 31.8618C26.7995 31.8613 26.0013 31.8605 25.2032 31.8595C25.1967 31.2872 25.3823 30.8317 25.7657 30.4063C26.4343 29.7844 27.4037 29.6388 28.1944 30.1163Z" fill="#99C865"/>
<path d="M10.373 29.8264C10.4108 29.8258 10.4486 29.8253 10.4876 29.8247C10.8338 29.8264 11.065 29.9319 11.3574 30.1164C11.5104 30.207 11.5104 30.207 11.6826 30.1984C11.7203 30.1743 11.758 30.1501 11.7968 30.1252C12.2577 29.8655 12.7778 29.7552 13.3007 29.8778C13.5933 29.9687 13.8454 30.0869 14.0937 30.2658C14.1532 30.305 14.1532 30.305 14.2138 30.3449C14.5605 30.6738 14.7512 31.0645 14.8437 31.5314C14.8449 31.6408 14.845 31.7502 14.8437 31.8596C14.0072 31.8607 13.1707 31.8615 12.3342 31.862C11.9458 31.8622 11.5575 31.8626 11.1691 31.8631C10.8307 31.8636 10.4923 31.8639 10.1539 31.864C9.97465 31.864 9.79536 31.8642 9.61608 31.8645C9.44753 31.8648 9.27898 31.8649 9.11042 31.8649C9.01868 31.8649 8.92694 31.8651 8.83519 31.8654C8.75405 31.8653 8.75405 31.8653 8.67126 31.8652C8.62394 31.8652 8.57663 31.8653 8.52788 31.8653C8.42182 31.8596 8.42182 31.8596 8.37495 31.8127C8.33695 31.3415 8.47492 30.9457 8.77375 30.58C9.21397 30.0776 9.70226 29.8166 10.373 29.8264Z" fill="#98C865"/>
<path d="M26.4834 10.0909C26.5415 10.0907 26.5996 10.0905 26.6595 10.0903C26.7507 10.0911 26.7507 10.0911 26.8437 10.092C26.9045 10.0914 26.9653 10.0909 27.0279 10.0903C27.086 10.0905 27.1442 10.0907 27.2041 10.0909C27.2574 10.091 27.3108 10.0912 27.3657 10.0914C27.5 10.1096 27.5 10.1096 27.5777 10.1615C27.6718 10.2942 27.6574 10.4017 27.6566 10.5631C27.6566 10.6104 27.6566 10.6104 27.6566 10.6587C27.6565 10.763 27.6554 10.8672 27.6543 10.9714C27.6541 11.0437 27.6539 11.1161 27.6537 11.1884C27.6532 11.3787 27.6518 11.5689 27.6502 11.7592C27.6488 11.9533 27.6482 12.1475 27.6475 12.3417C27.6459 12.7227 27.6435 13.1036 27.6406 13.4846C27.5586 13.4327 27.4766 13.3809 27.3947 13.3289C27.3491 13.3 27.3034 13.2712 27.2564 13.2414C27.0876 13.1323 26.9255 13.016 26.7646 12.8957C26.7225 12.8646 26.7225 12.8646 26.6796 12.8328C26.6243 12.7919 26.5694 12.7505 26.5149 12.7086C26.4232 12.6394 26.4232 12.6394 26.3244 12.5837C26.1783 12.4925 26.067 12.4226 26.013 12.254C26.0011 12.1264 26.0009 12.0037 26.0053 11.8756C26.0056 11.8065 26.0056 11.8065 26.0059 11.7359C26.0066 11.6389 26.0083 11.5419 26.0108 11.4448C26.0146 11.2961 26.0156 11.1475 26.0162 10.9986C26.0173 10.9042 26.0185 10.8098 26.0199 10.7155C26.0204 10.6709 26.0208 10.6264 26.0213 10.5805C26.0225 10.5392 26.0237 10.4979 26.0249 10.4553C26.0257 10.419 26.0266 10.3827 26.0274 10.3453C26.079 10.0929 26.2581 10.0916 26.4834 10.0909Z" fill="#6F6570"/>
<path d="M30.7433 30.0949C30.8393 30.1628 30.9273 30.235 31.0156 30.3126C31.044 30.3361 31.0724 30.3596 31.1017 30.3838C31.4076 30.6583 31.6543 31.083 31.6781 31.4997C31.678 31.5362 31.6779 31.5728 31.6777 31.6105C31.6779 31.6658 31.6779 31.6658 31.6781 31.7223C31.6719 31.8126 31.6719 31.8126 31.625 31.8595C31.5588 31.8638 31.4924 31.865 31.426 31.8648C31.3838 31.8648 31.3416 31.8648 31.2981 31.8648C31.2522 31.8646 31.2063 31.8643 31.159 31.8641C31.1122 31.864 31.0655 31.8639 31.0173 31.8639C30.8673 31.8636 30.7174 31.863 30.5674 31.8624C30.466 31.8622 30.3646 31.862 30.2632 31.8618C30.014 31.8613 29.7648 31.8605 29.5156 31.8595C29.5236 31.8153 29.5315 31.7711 29.5396 31.7255C29.6047 31.306 29.3833 30.9161 29.1465 30.5851C29.0199 30.4213 28.8831 30.2972 28.7188 30.172C28.7656 30.0314 28.7656 30.0314 28.8414 29.9766C29.4298 29.7109 30.1968 29.7569 30.7433 30.0949Z" fill="#8EBC53"/>
<path d="M20 22.625C20.7116 22.625 21.4231 22.625 22.1562 22.625C22.1562 23.1973 22.1562 23.7697 22.1562 24.3594C20.7486 24.3594 19.3409 24.3594 17.8906 24.3594C17.8906 24.3439 17.8906 24.3284 17.8906 24.3125C18.5867 24.3125 19.2828 24.3125 20 24.3125C20 23.7556 20 23.1988 20 22.625Z" fill="#9BBBE0"/>
<path d="M17.8906 22.625C18.5867 22.625 19.2828 22.625 20 22.625C20 23.1819 20 23.7387 20 24.3125C19.3039 24.3125 18.6078 24.3125 17.8906 24.3125C17.8906 23.7556 17.8906 23.1988 17.8906 22.625Z" fill="#C7DCF6"/>
</g>
<defs>
<clipPath id="clip0_461_372">
<rect width="24" height="24" fill="white" transform="translate(8 8)"/>
</clipPath>
</defs>
</svg>
