<svg width="24" height="24" viewBox="0 0 24 24" fill="none" xmlns="http://www.w3.org/2000/svg">
<circle cx="12" cy="12" r="12" fill="#F0F7FF"/>
<path d="M5.55036 9.92196C5.84608 9.01591 6.33033 8.18276 6.97123 7.47733C7.02476 7.41972 7.09389 7.37894 7.17021 7.35996C7.24652 7.34098 7.32671 7.34463 7.40098 7.37046L8.93098 7.91496C9.03967 7.95349 9.1554 7.96802 9.27024 7.95758C9.38507 7.94713 9.49628 7.91194 9.59623 7.85443C9.69617 7.79693 9.78248 7.71846 9.84922 7.62443C9.91596 7.5304 9.96155 7.42303 9.98286 7.30971L10.2754 5.71671C10.2891 5.63904 10.3258 5.56727 10.3807 5.51071C10.4357 5.45414 10.5064 5.41539 10.5836 5.39946C11.5183 5.20213 12.4839 5.20213 13.4186 5.39946C13.5761 5.43321 13.6976 5.55808 13.7269 5.71671L14.0194 7.30971C14.0403 7.42322 14.0857 7.53082 14.1523 7.62506C14.219 7.7193 14.3053 7.79792 14.4054 7.85549C14.5054 7.91306 14.6168 7.94819 14.7318 7.95846C14.8467 7.96873 14.9626 7.95388 15.0712 7.91496L16.6012 7.37046C16.6755 7.34463 16.7557 7.34098 16.832 7.35996C16.9083 7.37894 16.9775 7.41972 17.031 7.47733C17.6715 8.18286 18.1553 9.01601 18.4507 9.92196C18.4754 9.99686 18.477 10.0774 18.4553 10.1533C18.4337 10.2291 18.3897 10.2966 18.3292 10.3472L17.0895 11.3946C17.0012 11.4688 16.9303 11.5615 16.8816 11.666C16.8329 11.7706 16.8077 11.8845 16.8077 11.9998C16.8077 12.1152 16.8329 12.2291 16.8816 12.3337C16.9303 12.4382 17.0012 12.5308 17.0895 12.6051L18.3292 13.6525C18.453 13.7571 18.5002 13.9247 18.4507 14.0777C18.1553 14.9837 17.6715 15.8168 17.031 16.5223C16.9775 16.5799 16.9083 16.6207 16.832 16.6397C16.7557 16.6587 16.6755 16.655 16.6012 16.6292L15.0712 16.0847C14.9626 16.0462 14.8468 16.0316 14.732 16.0421C14.6171 16.0525 14.5059 16.0877 14.406 16.1452C14.306 16.2027 14.2197 16.2812 14.153 16.3752C14.0863 16.4693 14.0407 16.5766 14.0194 16.69L13.7269 18.283C13.7131 18.3608 13.6762 18.4327 13.621 18.4892C13.5659 18.5458 13.4949 18.5845 13.4175 18.6002C12.4831 18.7974 11.5179 18.7974 10.5836 18.6002C10.5062 18.5845 10.4352 18.5458 10.3801 18.4892C10.3249 18.4327 10.288 18.3608 10.2742 18.283L9.98286 16.69C9.9619 16.5764 9.91653 16.4688 9.84988 16.3746C9.78322 16.2804 9.69688 16.2017 9.59683 16.1442C9.49678 16.0866 9.38542 16.0515 9.27045 16.0412C9.15548 16.0309 9.03965 16.0458 8.93098 16.0847L7.40098 16.6292C7.32671 16.655 7.24652 16.6587 7.17021 16.6397C7.09389 16.6207 7.02476 16.5799 6.97123 16.5223C6.33074 15.8168 5.84688 14.9837 5.55148 14.0777C5.52683 14.0028 5.52523 13.9222 5.54689 13.8464C5.56855 13.7706 5.61248 13.703 5.67298 13.6525L6.91273 12.6051C7.00082 12.5307 7.07162 12.4381 7.12019 12.3335C7.16875 12.229 7.19391 12.1151 7.19391 11.9998C7.19391 11.8846 7.16875 11.7707 7.12019 11.6661C7.07162 11.5616 7.00082 11.4689 6.91273 11.3946L5.67298 10.3472C5.61248 10.2966 5.56855 10.2291 5.54689 10.1533C5.52523 10.0774 5.5257 9.99686 5.55036 9.92196ZM10.0312 11.9998C10.0312 12.522 10.2387 13.0227 10.6079 13.392C10.9771 13.7612 11.4778 13.9686 12 13.9686C12.5221 13.9686 13.0229 13.7612 13.3921 13.392C13.7613 13.0227 13.9687 12.522 13.9687 11.9998C13.9687 11.4777 13.7613 10.9769 13.3921 10.6077C13.0229 10.2385 12.5221 10.0311 12 10.0311C11.4778 10.0311 10.9771 10.2385 10.6079 10.6077C10.2387 10.9769 10.0312 11.4777 10.0312 11.9998Z" fill="#637593"/>
</svg>
